<svg xmlns="http://www.w3.org/2000/svg" xmlns:xlink="http://www.w3.org/1999/xlink" viewBox="0 0 1213.2 566"><defs><path id="a" d="M0 0h1213.2v566H0z"/></defs><clipPath id="b"><use xlink:href="#a" overflow="visible"/></clipPath><g clip-path="url(#b)"><path d="M104.3.4l132.4.2 976.5-.6H104c.1.1.2.2.3.4zM1214.5 0h-1.3v252.6" fill="#f05f24"/><path d="M1043 217.8c74 50.5 134.6 60.4 170.2 34.8V0L236.7.6 104.3.4c1.7 2.2 3.4 4.4 5.2 6.6 104.9 128.1 249.6 101.1 249.6 101.1-14.9 6.2-30.1 11.8-45.9 16 81.4-21.9 145.9-77.9 239.5-78.1 219.1-14.8 320.2 55.9 490.3 171.8z" fill="#f17661"/><path d="M313.2 124.2c-.9.3-1.9.5-2.8.7.9-.2 1.8-.5 2.8-.7zm343.4-56.8c-1.3-.5-2.5-1-3.7-1.5 1.2.6 2.5 1 3.7 1.5zm-5-1.9c-1.5-.6-3-1.1-4.4-1.6 1.4.5 2.9 1 4.4 1.6zm11.1 4.4c-1.6-.7-3.2-1.3-4.9-2 1.6.7 3.2 1.3 4.9 2zM644.8 63c-.6-.2-1.3-.5-1.9-.7.7.3 1.3.5 1.9.7zm-5.1-1.8c-.1 0-.2-.1-.3-.1.1.1.2.1.3.1z" fill="#2868ae"/><path d="M144.3 109.9c66.8 27.7 119.3 27.1 166.1 15-46.8 12.1-99.3 12.6-166.1-15zm168.9 14.2s0 .1 0 0c0 .1 0 0 0 0zM104 0H7.1l.2.2 97 .2c-.1-.2-.2-.3-.3-.4z" fill="#773070"/><path d="M109.5 7c-1.8-2.2-3.5-4.4-5.2-6.6L7.3.2c34.9 48.1 81.4 86.7 137 109.7 66.8 27.6 119.3 27.1 166.1 15 .9-.2 1.9-.5 2.8-.7 15.8-4.3 31-9.8 45.9-16 0-.1-144.7 26.9-249.6-101.2z" fill="#e24444"/><path d="M760 132zM647.1 63.8c-.8-.3-1.5-.5-2.3-.8.8.3 1.6.6 2.3.8zm15.6 6.1c16.2 6.7 30.9 14.1 44.2 21.9-13.3-7.8-28-15.2-44.2-21.9zm-19.8-7.5c-1.1-.4-2.2-.7-3.2-1.1 1.1.3 2.1.7 3.2 1.1zm570.3 424.3c-56.7 22.8-120.6 15.9-179.8-8.6M652.9 66c-.4-.2-.9-.3-1.3-.5.4.2.8.3 1.3.5zm150.3 118.6c-1.5-2.3-3-4.6-4.6-6.9 1.5 2.3 3.1 4.6 4.6 6.9zM657.8 67.9c-.4-.2-.8-.3-1.2-.5.4.2.8.4 1.2.5zm151.9 127.2zm-257-149c-.6 0-1.1.1-1.7.1 26.8-.2 55.8 4 88.4 14.9-31.9-10.7-60.4-15.1-86.7-15zm228.1 108.2zm10.5 13.3c-3.3-4.5-6.8-8.9-10.5-13.3 3.7 4.3 7.2 8.8 10.5 13.3zM760 132c-5.4-5.2-11-10.2-17-15.1 6 4.9 11.7 9.9 17 15.1zm88.2 139.1c-1.1-2.5-2.2-4.9-3.3-7.3 1.1 2.4 2.2 4.9 3.3 7.3zm-22.6-47.5c-1.2-2.4-2.5-4.8-3.8-7.2 1.3 2.4 2.5 4.8 3.8 7.2zm7.2 14.5c-1.2-2.4-2.4-4.9-3.6-7.3 1.2 2.5 2.4 4.9 3.6 7.3zm3.5 7.3c-1.2-2.4-2.3-4.9-3.5-7.3 1.2 2.5 2.4 4.9 3.5 7.3zm89.9 159.1c-1.9-2.1-3.8-4.2-5.6-6.4 1.8 2.2 3.7 4.3 5.6 6.4zm-59.4-93.1c-1.2-2.4-2.3-4.9-3.5-7.3 1.2 2.5 2.3 4.9 3.5 7.3zm-45-95l-3.9-7.2 3.9 7.2zm-93.9-111c-6.6-4.7-13.6-9.2-21-13.6 7.4 4.4 14.4 8.9 21 13.6zm15.1 11.5c-3.6-2.9-7.3-5.8-11.2-8.7 3.8 2.8 7.6 5.7 11.2 8.7z" fill="#5d9e66"/><path d="M1213.2 486.7V252.6c-35.6 25.5-96.2 15.7-170.2-34.8C872.9 101.9 771.8 31.2 552.7 46.1c26.3 0 54.8 4.3 86.7 15.1.1 0 .2.1.3.1 1.1.4 2.2.7 3.2 1.1.6.2 1.3.5 1.9.7.8.3 1.5.5 2.3.8 1.5.5 2.9 1.1 4.4 1.6.4.2.9.3 1.3.5 1.2.5 2.5 1 3.7 1.5.4.2.8.3 1.2.5 1.6.6 3.2 1.3 4.9 2 16.2 6.7 30.9 14.1 44.2 21.9 7.4 4.4 14.4 8.9 21 13.6 1.3.9 2.6 1.9 3.9 2.8 3.9 2.8 7.6 5.7 11.2 8.7 6 4.9 11.7 9.9 17 15.1 4.3 4.1 8.4 8.3 12.3 12.6 1 1.1 1.9 2.1 2.9 3.2 1.9 2.2 3.8 4.3 5.6 6.5 3.7 4.4 7.1 8.8 10.5 13.3 2.5 3.4 4.9 6.8 7.3 10.2 1.6 2.3 3.1 4.6 4.6 6.9 2.3 3.5 4.4 7 6.6 10.5 2.8 4.7 5.6 9.4 8.2 14.2l3.9 7.2c1.3 2.4 2.5 4.8 3.8 7.2 1.2 2.4 2.5 4.8 3.7 7.2 1.2 2.4 2.4 4.8 3.6 7.3s2.3 4.9 3.5 7.3c2.9 6.1 5.7 12.2 8.5 18.3 1.1 2.4 2.2 4.9 3.3 7.3 5 11 10 22.1 15.1 33 1.1 2.4 2.3 4.9 3.5 7.3 14.6 30.3 30.9 59.8 53.8 86.7 1.8 2.2 3.7 4.3 5.6 6.4 25.8 28.6 59.6 53.9 107.2 73.6 59.2 24.3 123.1 31.2 179.8 8.4z" fill="#f9a83a"/></g></svg>