<svg xmlns="http://www.w3.org/2000/svg" viewBox="0 0 156.7 172.7"><path d="M77.1 159.7c-1.1 4.2-1.9 8.6-2.1 13h81.8v-145c-9.7.2-19.8 4.3-26.6 11.6-17.2 18.9-14.9 43.8-14.9 43.8-.1.2-.3.3-.4 0 .5-10.9-1.2-21.4-.1-32.4-2.4 22.4 7.4 42.9-14.7 69.2-2 3-3.8 5.7-5.8 8.5-7 9.8-14 18.8-17.2 31.3z" fill="#2867ae"/><path d="M74.9 172.7c.3-4.4 1-8.9 2.1-13 3.2-12.5 10.2-21.5 17.2-31.2 2-2.8 3.8-5.5 5.8-8.5-31.9 37.9-63.2 8.2-94.5 45.3-1.1 1.3-2.2 2.7-3.2 4-.8 1.1-1.6 2.3-2.3 3.4h74.9z" fill="#5d9e66"/><path d="M114.8 83.2c.2.3.3.1.4 0 0 0-2.3-24.8 14.9-43.8 6.7-7.4 16.8-11.4 26.6-11.6V0c-10.5 3.7-20.2 10.1-27.8 19.2-9.6 11.4-13.1 21.7-14.1 31.6-1.2 10.9.6 21.4 0 32.4z" fill="#773070"/></svg>