<svg version="1.1" id="contact" xmlns="http://www.w3.org/2000/svg" x="0" y="0" viewBox="0 0 2039 2039" xml:space="preserve"><style>.st2{fill:#2867ae}.st9{opacity:.2;enable-background:new}.st12{fill:#cee0f4}</style><circle cx="1019.5" cy="1019.5" r="1019.5" fill="#f2f8fc" id="b_x5F_circle"/><g id="icons"><path d="M735.8 1343.5c113.3 113.3 244.6 221.6 296.4 169.8 74.2-74.2 120-139 283.7-7.3 163.7 131.5 41.1 227-34.1 291.1-89.3 76.2-392.4 4.4-698.1-301.4-305.9-305.9-381-611.9-301.5-698.2 66.8-72.5 159.6-197.7 291.1-34 131.6 163.7 67 209.5-7.3 283.7-51.8 51.8 56.5 183 169.8 296.3z" fill="#bed5f0"/><path class="st2" d="M1183.3 1841.1c-49.8 0-109.7-12.2-174.9-36.5-142.2-53-297.1-158.7-436-297.6-139.3-139.3-245.5-294.6-298.9-437.2-47.8-127.5-48.9-233.4-3-283.2 4.4-4.8 9-9.8 13.6-15 42.8-47.4 96-106.4 165-104.5 46.4 1.3 91.1 29.5 136.7 86.3 133.2 165.6 73.3 224.5 4 292.7-4.1 4-8.3 8.2-12.5 12.4-15.6 15.6-30.4 73.6 169.7 273.7 66.5 66.5 123.2 115.2 168.7 144.7 36 23.4 83.4 46.7 105.1 25.1 4.3-4.3 8.5-8.5 12.6-12.7 68.1-69.1 127-128.9 292.5 4.2 57.9 46.5 86.3 92.3 87 139.9 1 72.5-65.3 128.8-113.7 169.9l-7.1 6c-24.8 21.2-62.4 31.8-108.8 31.8zm-737.4-1142c-53.3 0-100.2 52-138 94-4.7 5.3-9.4 10.4-13.9 15.3-37 40.2-33.4 136.1 9.4 250.3 51.9 138.4 155.5 289.6 291.6 425.8 135.7 135.7 286.5 238.8 424.5 290.3 113.3 42.2 209.8 46.2 251.9 10.3l7.1-6c46-39 103.2-87.6 102.4-145.1-.5-37-25.7-75.8-75-115.4-143-115-183.1-74.2-249.7-6.7-4.2 4.2-8.4 8.5-12.7 12.9-29.6 29.6-78.4 22.6-145.2-20.8-47.3-30.8-105.8-80.9-173.9-148.9-166.7-166.7-220.6-268-169.7-319 4.3-4.3 8.5-8.4 12.7-12.5 67.7-66.6 108.5-106.8-6.5-249.8-38.8-48.3-76.7-73.3-112.7-74.3-.8-.4-1.5-.4-2.3-.4z"/><path d="M1099.5 1552.6c4.3-4.3 8.6-8.6 12.7-12.9 45.6-46.3 78.8-79.9 141.2-59.6-101.8-65.2-139.6-26.8-197.2 31.6-4.2 4.2-8.4 8.5-12.7 12.9-19.6 19.6-47.6 23-83.7 10.6 64 40.2 111 46.2 139.7 17.4zM651 1512.4c-136.1-136.1-239.7-287.4-291.6-425.8-42.8-114.2-46.4-210.1-9.4-250.3 4.5-4.9 9.1-10 13.9-15.3 37.8-41.9 84.7-94 138-94h2.3c4.2.1 8.5.6 12.8 1.4-23.5-18.9-46.6-28.8-68.8-29.4h-2.3c-53.3 0-100.2 52-138 94-4.7 5.3-9.4 10.4-13.9 15.3-37 40.2-33.4 136.1 9.4 250.3 51.9 138.4 155.5 289.6 291.6 425.8 118.1 118.1 247.5 211.4 370 267.6-105.4-57-213.8-139.4-314-239.6z" fill="#dceeff"/><path d="M1345.9 1556.3c4.5 11.3 6.9 22.5 7.1 33.6.8 57.4-56.4 106-102.4 145.1l-7.1 6c-42.1 35.9-138.6 32-251.9-10.3-138-51.5-288.8-154.5-424.5-290.3-72.2-72.2-135.2-148.6-186.2-225.1 55.2 91 128.2 183.1 214.2 269.1 135.7 135.7 286.5 238.8 424.5 290.3 113.3 42.2 209.8 46.2 251.9 10.3l7.1-6c46-39 103.2-87.6 102.4-145.1-.4-25.2-12.2-51.1-35.1-77.6zm-806.5-577c-4.2 4.1-8.4 8.3-12.7 12.5-32.6 32.6-22.1 86 33.4 163.9-29.9-54.5-31.4-93.8-5.4-119.9 4.3-4.3 8.5-8.4 12.7-12.5 62.6-61.6 102.2-100.6 16.9-219.2 46.2 85.6 9.2 121.9-44.9 175.2z" fill="#7da2c6"/><g id="chat_1_"><path d="M1397 786.7v362.1L1286.8 1040H960.6c-40.1 0-72.6-32.5-72.6-72.5v-254c0-40.1 32.9-72.5 73-72.5l252-1 184 146.7z" fill="#75ba7c" stroke="#2867ae" stroke-width="32" stroke-linecap="round" stroke-linejoin="round" stroke-miterlimit="10"/><path d="M1207.2 655.9l-246.4 1.6c-31.5.1-57 25.5-56.9 56.7l.1 30c-.1-31.2 25.4-56.6 56.9-56.7l246.4-1.6 173.9 137.9-.1-30-173.9-137.9z" opacity=".25" fill="#fff"/><path d="M1286.8 994H960.6c-31.2 0-56.6-25.4-56.6-56.5v30c0 31.2 25.4 56.5 56.6 56.5h326.2c4.2 0 8.2 1.7 11.2 4.6l83 81.9v-30l-83-81.9c-3-2.9-7-4.6-11.2-4.6z" opacity=".11"/><path d="M1203 780.8h-195.1c-6.4 0-11.6-5.2-11.6-11.6 0-6.4 5.2-11.6 11.6-11.6H1203c6.4 0 11.6 5.2 11.6 11.6s-5.2 11.6-11.6 11.6zm0 72h-195.1c-6.4 0-11.6-5.2-11.6-11.6 0-6.4 5.2-11.6 11.6-11.6H1203c6.4 0 11.6 5.2 11.6 11.6s-5.2 11.6-11.6 11.6zm0 72h-195.1c-6.4 0-11.6-5.2-11.6-11.6 0-6.4 5.2-11.6 11.6-11.6H1203c6.4 0 11.6 5.2 11.6 11.6 0 6.5-5.2 11.6-11.6 11.6z" fill="#fff"/><path class="st9" d="M1413 786.7V821h-75.6l-98.6 98.6c-6.6 6.6-15.4 10.2-24.7 10.2-4.6 0-9.1-.9-13.4-2.7-13.1-5.4-21.6-18.1-21.6-32.3V624.1l33.9-.1h.1c3.6 0 7.1 1.2 10 3.5l184 146.7c3.7 3 5.9 7.6 5.9 12.5z"/><path d="M1649.5 786h-326.6L1214 894.8V459.5c0-40.1 32.5-72.5 72.5-72.5h362.9c40.1 0 72.5 32.5 72.5 72.5v253.9c.1 40.1-32.4 72.6-72.4 72.6z" fill="#fff" stroke="#2867ae" stroke-width="32" stroke-linecap="round" stroke-linejoin="round" stroke-miterlimit="10"/><path d="M1649.5 743h-326.6c-4.2 0-8.3 1.7-11.3 4.7l-81.5 81.5v27l81.5-81.5c3-3 7.1-4.7 11.3-4.7h326.6c31.2 0 56.5-25.4 56.5-56.5v-27c0 31.1-25.4 56.5-56.5 56.5z" opacity=".12"/><circle class="st9" cx="1602.4" cy="597.4" r="36"/><circle class="st9" cx="1470" cy="597.4" r="36"/><circle class="st9" cx="1337.6" cy="597.4" r="36"/><circle class="st12" cx="1338.4" cy="591.8" r="29"/><path class="st2" d="M1338.4 627.8c-19.9 0-36-16.2-36-36 0-19.9 16.2-36 36-36 19.9 0 36 16.2 36 36s-16.2 36-36 36zm0-58.1c-12.2 0-22.1 9-22.1 20.1s9.9 20.1 22.1 20.1 22.1-9 22.1-20.1-9.9-20.1-22.1-20.1z"/><circle class="st12" cx="1470.4" cy="591.8" r="29"/><path class="st2" d="M1470.4 627.8c-19.9 0-36-16.2-36-36 0-19.9 16.2-36 36-36s36 16.2 36 36-16.1 36-36 36zm0-58.1c-12.2 0-22.1 9.9-22.1 22.1s9.9 22.1 22.1 22.1 22.1-9.9 22.1-22.1-9.9-22.1-22.1-22.1z"/><circle class="st12" cx="1602.4" cy="591.8" r="29"/><path class="st2" d="M1602.4 627.8c-19.9 0-36-16.2-36-36 0-19.9 16.2-36 36-36 19.9 0 36 16.2 36 36s-16.1 36-36 36zm0-57.8c-12.2 0-22.1 9.8-22.1 21.9 0 12.1 9.9 21.9 22.1 21.9s22.1-9.8 22.1-21.9-9.9-21.9-22.1-21.9z"/></g></g></svg>