<svg id="Layer_1" data-name="Layer 1" xmlns="http://www.w3.org/2000/svg" viewBox="0 0 1069.2 523.8"><defs><style>.cls-3{fill:#e24444}</style></defs><path d="M485.48 300c.6 0 1.3.1 1.9.1-.6-.03-1.2-.1-1.9-.1z" fill="#f05f24"/><path d="M893.28 420.37c218.6.9 261.3-189.5 127.8-270.9S754.18 132 754.18 132c24.1-17.8 49.8-34 80.2-45.4-97.5 36.6-145.7 121.6-250.6 152.7-209.2 74.8-324.9 41.9-518.8-10.8-170.8-46.5-287.1-124-287.1-124-76 128.8-83.7 288.7-42.4 425.6h892.2c52.2-67.23 162.5-110.1 265.6-109.73z" fill="#f17661"/><path class="cls-3" d="M842.58 105.07c.1 0 .1 0 .2-.1a.31.31 0 01-.2.1z"/><path class="cls-3" d="M1021.08 149.47c133.5 81.3 90.8 271.7-127.8 270.9-103.1-.4-213.4 42.5-265.6 109.7h601.8a20 20 0 001-2.1l3-6.3c1.6-3.4 3.1-6.8 4.5-10.4.9-2.2 1.7-4.3 2.6-6.6.6-1.5 1.1-3 1.6-4.5.5-1.3 1-2.7 1.4-4.1.6-1.6 1.1-3.3 1.6-4.9.3-1.1.7-2.2 1-3.3.5-1.7 1-3.5 1.5-5.2.4-1.3.8-2.7 1.1-4l1.2-4.8c.8-3.2 1.6-6.4 2.3-9.7a350.75 350.75 0 006.9-49.3c.6-8.3.9-16.6.9-24.8 0-5.6-.2-11.3-.5-16.9-.4-7.6-1.1-15.1-2-22.5-.1-.7-.2-1.5-.3-2.2-14.1-105.6-79.9-196.4-172.6-243.9-5.4-2.7-10.8-5.3-16.4-7.8a321.3 321.3 0 00-106.8-26.6c-2.7-.2-5.4-.4-8-.5-.6 0-1.1-.1-1.7-.1l-7.6-.3h-1.3c-2.3-.1-4.7-.1-7-.1h-1c-2.5 0-4.9 0-7.4.1H926c-2.5.1-4.9.1-7.3.2h-.3c-2.4.1-4.7.3-7 .4-.4 0-.8.1-1.2.1l-6.9.6c-.3 0-.7.1-1 .1-2.3.2-4.5.5-6.7.7h-.3l-6.8.9c-.3.1-.7.1-1 .2-2.3.3-4.5.7-6.7 1.1h-.1c-2.2.4-4.4.8-6.6 1.3-.2 0-.4.1-.6.1-2.2.4-4.3.9-6.4 1.4-.2 0-.4.1-.6.1-4.3 1-8.6 2.1-12.7 3.3-.2 0-.3.1-.5.1-6.4 1.9-12.6 3.9-18.6 6.2-.1 0-.1 0-.2.1-30.5 11.5-56.2 27.6-80.2 45.4-.12.43 133.28-63.4 266.78 17.9z"/><path d="M478 299.47c2.5.2 5 .3 7.5.5-2.42-.1-4.92-.3-7.5-.5zm9.38.6l6.9.3zm7.3.3c2.5.1 4.9.1 7.3.2-2.4-.1-4.8-.1-7.3-.2zm15.9.2c2.5 0 4.9-.1 7.4-.2-2.5.1-4.98.1-7.4.2zm73.3-61.3c-21.8 6.5-46 10.6-73.5 11.5h-.6c-2.4.1-4.9.1-7.4.2h-8.6c-2.4 0-4.8-.1-7.3-.2H486l-6.9-.3c-.6 0-1.3-.1-1.9-.1-2.5-.1-5-.3-7.5-.5C222.78 231.87 251.18 18.57 9.38 1c-91.1-6.7-182.5 20.8-231.4 103.4 0 0 116.3 77.5 287.1 124 193.92 52.77 309.6 85.67 518.8 10.87z" fill="#f9a83a"/></svg>