<svg xmlns="http://www.w3.org/2000/svg" viewBox="0 0 907.6 282.5"><path d="M341.4 165.1h-12.3v-60h12.3v26.1l17-26.1h14.3L353.3 134l19.4 31.1h-14.5l-16.8-26.7v26.7zm44.2-18.1c1 5.8 5.2 9.4 10.9 9.4 4.2 0 7.8-2.1 9.6-5.4l10.5 2.9c-4.1 8.1-11.4 12.7-20.2 12.7-13.2 0-22.7-9.4-22.7-22.3 0-13 9.1-22.2 22-22.2 13.3 0 22.6 9.4 22.6 22.8l-.1 2.2-32.6-.1zm20.9-6.5c-1-5.5-5-8.8-10.6-8.8-5.5 0-9.2 3.1-10.3 8.8h20.9zm29.1 6.5c1 5.8 5.2 9.4 10.9 9.4 4.2 0 7.8-2.1 9.6-5.4l10.5 2.9c-4.1 8.1-11.4 12.7-20.2 12.7-13.2 0-22.7-9.4-22.7-22.3 0-13 9.1-22.2 22-22.2 13.3 0 22.6 9.4 22.6 22.8l-.1 2.2-32.6-.1zm20.9-6.5c-1-5.5-5-8.8-10.6-8.8-5.5 0-9.2 3.1-10.3 8.8h20.9zm31.4-17v5.1c3.4-4.6 7.5-6.6 13.7-6.6 4.4 0 8.1 1.1 11.6 3.4 6.3 4.3 9.5 10.6 9.5 19 0 13.3-8.3 22.1-20.8 22.1-6 0-10.4-1.9-14-5.9v23.1h-11.4v-60.3l11.4.1zm0 21.3c0 7.6 4.4 12.6 11.1 12.6s11.4-5.3 11.4-12.7c0-7.6-4.6-13-11.1-13-6.7 0-11.4 5.4-11.4 13.1zm77.3 20.3h-12.3v-60h12.3v60zm23.9-12.2c0 2 .7 2.5 3.2 2.7h2v9.5h-9.1c-5.6-.2-7.6-2.4-7.6-7.9v-24.3h-4.8v-9.6h4.8v-11.2H589v11.2h5.2v9.6H589l.1 20zm50.9 12.2h-12.3v-60h12.1l25.1 37.4v-37.4h12.3v60h-12.1l-25.2-38v38h.1zm58.7-18.1c1 5.8 5.2 9.4 10.9 9.4 4.2 0 7.8-2.1 9.6-5.4l10.5 2.9c-4.1 8.1-11.4 12.7-20.2 12.7-13.2 0-22.7-9.4-22.7-22.3 0-13 9.1-22.2 22-22.2 13.3 0 22.6 9.4 22.6 22.8l-.1 2.2-32.6-.1zm20.9-6.5c-1-5.5-4.9-8.8-10.6-8.8-5.5 0-9.2 3.1-10.3 8.8h20.9zm55.7-17v26.4c0 6.1-1.3 9.5-4.7 12.4-3.3 2.8-8 4.3-13.5 4.3-5.8 0-10.7-1.6-13.9-4.6-3-2.7-4.4-6.7-4.4-12.1v-26.4h11.4v25.6c0 4.7 2.8 7.8 6.9 7.8 4.2 0 6.8-2.7 6.8-7.1v-26.4h11.4v.1zm22.5 29.4c0 2 .7 2.5 3.2 2.7h2v9.5h-9.1c-5.6-.2-7.6-2.4-7.6-7.9v-24.3h-4.8v-9.6h4.8v-11.2h11.4v11.2h5.2v9.6h-5.2l.1 20zm25.4-29.4v6.1c1.2-3.1 2-4.3 3.7-5.6 1.8-1.3 4.2-2 6.8-2 .3 0 .7 0 1.3.1v11.7c-.9-.1-1.8-.2-2.4-.2-3.2 0-6 1.4-7.6 3.8-1.4 1.9-1.7 3.7-1.7 7.6v20.1h-11.4v-41.7l11.3.1zm50.3 0h11.4v41.7h-11.4v-5.8c-3.9 4.9-8.4 7.2-14.5 7.2-11.7 0-20.1-9.1-20.1-21.8 0-13.1 8.8-22.8 21-22.8 5.7 0 9.5 2 13.6 6.8v-5.3zm-22.3 21.1c0 7.3 4.8 12.8 11 12.8 6.4 0 11.5-5.9 11.5-13.1 0-7.4-4.7-12.6-11.4-12.6-6.6 0-11.1 5.3-11.1 12.9zm45 20.5v-60h11.4v60h-11.4z" fill="#fff"/><path d="M225.3 97.5c-9.3-.8-13.6-2.9-23.7-13.2-25-25.3-1.7-45.7-26.2-70.5-17.9-18.2-47.2-18.4-65.4-.5-24.8 24.5-1.8 45.2-27.2 70.2s-45.7 1.7-70.5 26.2c-9.3 9.2-15 21.7-10.7 34.8 15.9 48.3 77.8 14.7 103.4-1.7 33-21.2 66.4-46.1 119-45.3" fill-rule="evenodd" clip-rule="evenodd" fill="#f17661"/><path d="M226 97.3c-5.7-.5-10.5-2.3-14.5-4.5-2.9-1.8-6.1-4.4-10-8.5-25-25.3-1.7-45.7-26.2-70.5-17.9-18.2-47.2-18.4-65.4-.5-10 9.9-12.2 19.1-13 28.3 0 0 5.7-20.5 27.2-27.2 21.4-6.7 38 15.9 17.2 39.5-20.8 23.5-23.6 69 30.7 52h.1c10.7-3.8 20.5-6.2 31.7-7.5h.2c.9-.1 1.9-.2 2.8-.3.3 0 .6-.1.8-.1 1.9-.2 3.9-.3 5.9-.4 7.6-.4 9.5.4 12.6.3.3 0 .3-.6-.1-.6z" fill="#e24443"/><path d="M92.4 70.1c-2 4.3-5 8.8-9.7 13.3-25.4 25-45.7 1.7-70.5 26.2-9.3 9.2-15 21.7-10.7 34.8 15.9 48.3 77.8 14.7 103.4-1.7 0 0-33.1 17.8-56.7 15.3-25.6-2.7-27.3-18.8-6.1-32.8 24-16 38.5-25.4 50.3-55.1" fill-rule="evenodd" clip-rule="evenodd" fill="#f8a73a"/><path d="M52.6 184.7c9.3.8 18.7 3.1 28.9 13.4 25 25.3 1.7 45.7 26.2 70.5 17.9 18.2 47.2 18.4 65.4.5C198 244.7 175 224 200.3 199c25.4-25 45.7-1.7 70.5-26.2 9.3-9.2 15-21.7 10.7-34.8-15.9-48.3-77.8-14.7-103.4 1.7-33 21.2-69.9 48.5-125.5 45" fill-rule="evenodd" clip-rule="evenodd" fill="#2867ae"/><path d="M205 193.3c5.6-6.5 11.2-12.5 14.3-21.2 3.2-8.8 4.4-19.4-.3-27.8-5.4-9.9-17.1-12.7-27.6-12.6 29.4-16.5 76.5-35 90.1 6.3 4.3 13.1-1.4 25.6-10.7 34.8-24.8 24.5-45.2 1.2-70.5 26.2 1.6-2 3.1-3.8 4.7-5.7z" fill-rule="evenodd" clip-rule="evenodd" fill="#5d9e66"/><path d="M187 224.3s0 17.9-13.5 30.3c-13.5 12.3-41.2 7.9-38.3-16.3 2.1-17.2 18.4-53-8.3-68.2-14.4 6.7-30.3 12-48.3 14.1h-.2c-6 .7-12.2 1-18.7.9-3.4-.2-5.5-.5-7.5-.4-.4 0-.5.6 0 .7 18 1.7 29.9 13.6 30.6 14.3 22.9 24.7.9 44.8 24.9 69.2 17.9 18.2 47.2 18.4 65.4.5 16.1-15.9 12.1-30.2 14.2-45.1-.1-.2-.2-.1-.3 0z" fill="#773070"/></svg>