<svg xmlns="http://www.w3.org/2000/svg" viewBox="0 0 282.9 282.7"><path d="M225.3 97.5c-9.3-.8-13.6-2.9-23.7-13.2-25-25.3-1.7-45.7-26.2-70.5-17.9-18.2-47.2-18.4-65.4-.5-24.8 24.5-1.8 45.2-27.2 70.2s-45.7 1.7-70.5 26.2c-9.3 9.2-15 21.7-10.7 34.8 15.9 48.3 77.8 14.7 103.4-1.7 33-21.2 66.4-46.1 119-45.3" fill-rule="evenodd" clip-rule="evenodd" fill="#f17661"/><path d="M226 97.3c-5.7-.5-10.5-2.3-14.5-4.5-2.9-1.8-6.1-4.4-10-8.5-25-25.3-1.7-45.7-26.2-70.5-17.9-18.2-47.2-18.4-65.4-.5-10 9.9-12.2 19.1-13 28.3 0 0 5.7-20.5 27.2-27.2 21.4-6.7 38 15.9 17.2 39.5-20.8 23.5-23.6 69 30.7 52h.1c10.7-3.8 20.5-6.2 31.7-7.5h.2c.9-.1 1.9-.2 2.8-.3.3 0 .6-.1.8-.1 1.9-.2 3.9-.3 5.9-.4 7.6-.4 9.5.4 12.6.3.3 0 .3-.6-.1-.6z" fill="#e24443"/><path d="M92.4 70.1c-2 4.3-5 8.8-9.7 13.3-25.4 25-45.7 1.7-70.5 26.2-9.3 9.2-15 21.7-10.7 34.8 15.9 48.3 77.8 14.7 103.4-1.7 0 0-33.1 17.8-56.7 15.3-25.6-2.7-27.3-18.8-6.1-32.8 24-16 38.5-25.4 50.3-55.1" fill-rule="evenodd" clip-rule="evenodd" fill="#f8a73a"/><path d="M52.6 184.7c9.3.8 18.7 3.1 28.9 13.4 25 25.3 1.7 45.7 26.2 70.5 17.9 18.2 47.2 18.4 65.4.5C198 244.7 175 224 200.3 199c25.4-25 45.7-1.7 70.5-26.2 9.3-9.2 15-21.7 10.7-34.8-15.9-48.3-77.8-14.7-103.4 1.7-33 21.2-69.9 48.5-125.5 45" fill-rule="evenodd" clip-rule="evenodd" fill="#2867ae"/><path d="M205 193.3c5.6-6.5 11.2-12.5 14.3-21.2 3.2-8.8 4.4-19.4-.3-27.8-5.4-9.9-17.1-12.7-27.6-12.6 29.4-16.5 76.5-35 90.1 6.3 4.3 13.1-1.4 25.6-10.7 34.8-24.8 24.5-45.2 1.2-70.5 26.2 1.6-2 3.1-3.8 4.7-5.7z" fill-rule="evenodd" clip-rule="evenodd" fill="#5d9e66"/><path d="M187 224.3s0 17.9-13.5 30.3c-13.5 12.3-41.2 7.9-38.3-16.3 2.1-17.2 18.4-53-8.3-68.2-14.4 6.7-30.3 12-48.3 14.1h-.2c-6 .7-12.2 1-18.7.9-3.4-.2-5.5-.5-7.5-.4-.4 0-.5.6 0 .7 18 1.7 29.9 13.6 30.6 14.3 22.9 24.7.9 44.8 24.9 69.2 17.9 18.2 47.2 18.4 65.4.5 16.1-15.9 12.1-30.2 14.2-45.1-.1-.2-.2-.1-.3 0z" fill="#773070"/></svg>