<svg xmlns="http://www.w3.org/2000/svg" xmlns:xlink="http://www.w3.org/1999/xlink" viewBox="0 0 157 157"><defs><circle id="a" cx="78.5" cy="78.5" r="78.5"/></defs><clipPath id="b"><use xlink:href="#a" overflow="visible"/></clipPath><g clip-path="url(#b)"><defs><path id="c" d="M-67.4 59.9c9.1 3.5 12.8 7.1 20 20.6 17.6 33.2-12.1 46.7 5 79.1 12.6 23.8 41.9 33 65.9 20.4 32.5-17.2 50.5 12.2 83.6-5.2s11.8-45.2 44.3-62.4c12.4-6.4 21.8-17.3 21.3-31.9-1.2-53.6-23.2-193.6-54-184.9C-50.2-161-13.3 77.1-66.2 60.2"/></defs><clipPath id="d"><use xlink:href="#c" overflow="visible"/></clipPath><path transform="rotate(-41.562 55.804 76.692)" clip-path="url(#d)" fill="#f17661" d="M-69.8.4h251.2V153H-69.8z"/><path d="M198.4 68.5c-6.3-.9-11.5-3-15.7-5.5-3.1-2.1-6.4-5-10.6-9.5-26.1-28.1.8-48.2-24.8-75.7-18.8-20.2-51.1-22-72.3-4.1-11.6 9.8-14.6 19.4-16 29 0 0 7.5-21.2 31.6-27.1 15.8-3.9 28.8 6 27.2 22.6C116.3 13.7 101.5 21.8 95 35c-4.8 9.9-8.1 23.5-1 33.2 9.7 13.1 30.7 9.8 44.1 6.5h.1c12-3.4 23-5.4 35.4-6.1h.2c1-.1 2.1-.1 3.1-.1h.9c2.1-.1 4.3-.1 6.5-.1 8.4 0 10.5 1 13.9 1 .6-.2.7-.8.2-.9z" fill="#e24444"/><path d="M66.7-5.2C49.9-4.4 25.8 3.4 13 14.7c-28.1 24.9-25.3 25.6-52.8 50-10.4 9.2-17 22-13.2 36 14 51.8 81.1 19.8 109 4 0 0-35.8 16.9-60.6 12.9-26.8-4.3-27.7-21.3-4.6-34.9C5.8 73.9 22 63 32.7 49.3c12.9-16.6 22.9-36.7 34-54.5z" fill-rule="evenodd" clip-rule="evenodd" fill="#f9a83a"/></g><defs><circle id="e" cx="78.5" cy="78.5" r="78.5"/></defs><clipPath id="f"><use xlink:href="#e" overflow="visible"/></clipPath><g clip-path="url(#f)"><path d="M-38.7 118.4c9.7 1.3 19.6 4.3 29.7 15.7 24.9 28.1-.7 48.2 23.6 75.7 17.9 20.2 48.7 22 68.9 4.1 27.5-24.4 4.4-47.5 32.5-72.4s48.2.7 75.7-23.6c10.4-9.2 17-22 13.2-36.1-14-51.8-81.1-19.8-109-4-36 20.6-76.3 47.4-134.6 40.6" fill-rule="evenodd" clip-rule="evenodd" fill="#2867ae"/><path d="M120.7 135.3c15.3-14.4 27.9-30 18.1-50.2-5.2-10.7-17.3-14.3-28.3-14.8C142.4 54.6 193 37.7 205 81.9c3.8 14-2.9 26.9-13.2 36.1-27.5 24.4-80.2 71.1-108.3 96 1.4-1.2-.9-11.4-.9-13.2-.3-10.4 1.3-20.8 5.6-30.3 5.4-12.2 19.9-23.3 32.5-35.2z" fill-rule="evenodd" clip-rule="evenodd" fill="#5d9e66"/><path d="M128.7 200.6s-29.1-14.2-44-2-43.9 6-39.4-19.2c3.2-18 22.3-54.8-4.9-72.3-15.6 6.3-32.6 11-51.6 12.1h-.2c-6.3.4-12.9.3-19.7-.1-3.6-.4-5.8-.8-7.9-.9-.4 0-.5.6-.1.7 18.8 2.8 30.7 16 31.4 16.7 22.7 27.3-1.6 47.3 22.4 74.3 17.9 20.2 48.7 22 68.9 4.1 17.7-15.8 42 2.2 45.1-13.4-.1 0 .1-.1 0 0z" fill="#773170"/></g><path d="M94.9 79.7L63.2 94.8c-.8.4-1.8-.2-1.8-1.1V62.5c0-.9 1-1.6 1.8-1.1l31.7 16c.9.5.9 1.8 0 2.3z" opacity=".96" fill="#fff"/></svg>