<svg version="1.1" id="question" xmlns="http://www.w3.org/2000/svg" x="0" y="0" viewBox="0 0 2039 2039" xml:space="preserve"><style>.st3{fill:#2868ae}.st5{fill:#34456b}</style><circle cx="1019.5" cy="1019.5" r="1019.5" fill="#f2f8fc" id="b_x5F_circle"/><ellipse cx="1018.4" cy="1023.7" rx="564.7" ry="558.7" fill="#fff" id="Layer_2_1_"/><g id="question_1_"><path d="M1395.1 1404.3c-148.2 148.2-363 190.4-549 126.4-73.9-25.4-143.3-67.5-202.2-126.4s-101-128.3-126.4-202.1c-63.9-186-21.8-400.7 126.4-549 148.2-148.2 363-190.3 549-126.4 73.9 25.4 143.3 67.5 202.1 126.4 58.9 58.9 101 128.3 126.4 202.2 64 185.9 21.9 400.7-126.3 548.9zm204.4-955.6c-99.8-99.8-254.5-119.5-376-47.7l-11 6.5c-223.3-68.9-476.7-15.2-653.1 161.2s-230.1 429.7-161.1 653l-6.5 11c-71.8 121.6-52.1 276.3 47.7 376 99.8 99.8 254.5 119.5 376 47.7l10.9-6.5c223.3 68.9 476.7 15.2 653.1-161.2 41.1-41.1 75.6-86.4 103.4-134.6l64.3-155c32.2-119 30-245.5-6.4-363.5l6.5-11c71.7-121.4 52.1-276.1-47.8-375.9z" fill="#dceeff"/><path class="st3" d="M1527.1 1028.8c0 65-12.4 130.1-37.1 191.2-24.8 61.1-61.8 118.3-111.4 167.8-49.5 49.5-106.8 86.6-167.9 111.4-61.1 24.7-126.1 37.1-191.2 37.1-56.2 0-112.3-9.2-165.9-27.7-70.6-24.3-136.9-64.5-193.3-120.9-56.3-56.3-96.6-122.7-120.9-193.3-18.4-53.6-27.7-109.6-27.7-165.7 0-65.1 12.4-130.2 37.1-191.3 24.7-61.2 61.8-118.4 111.4-168C709.7 619.9 766.9 582.8 828 558c61.1-24.7 126.2-37.1 191.2-37.1 56.2 0 112.3 9.2 166 27.7 70.7 24.3 136.9 64.5 193.3 120.8 56.3 56.4 96.5 122.6 120.8 193.3 18.6 53.8 27.8 110 27.8 166.1zm-326.6-524c-58.6-20.2-119.8-30.2-181.1-30.2-71 0-141.9 13.5-208.7 40.5-66.7 27-129.3 67.6-183.2 121.6-54.1 54-94.6 116.6-121.6 183.4-27.1 66.8-40.5 137.8-40.5 208.8 0 61.1 10.1 122.3 30.1 180.8 26.5 77.1 70.5 149.6 132 211 61.4 61.4 133.9 105.5 211 132 58.5 20.1 119.8 30.2 181 30.2 71 0 141.9-13.5 208.7-40.6 66.7-27 129.3-67.6 183.3-121.6s94.6-116.5 121.6-183.3c27-66.7 40.5-137.6 40.5-208.6 0-61.2-10-122.5-30.2-181.1-26.5-77.1-70.5-149.6-131.9-211s-133.9-105.4-211-131.9z"/><path class="st3" d="M1713.4 667.5c0-43-8.3-85.8-24.7-125.9-16.3-40-40.7-77.4-72.7-109.4s-69.4-56.4-109.4-72.7c-40.1-16.4-82.9-24.7-125.9-24.7-58 0-116.4 15.2-169 46.2h-.1l-2.6 1.6c-61.8-18-125.6-27.4-189.4-27.4-86.3 0-172.6 16.4-253.8 49.2-81.1 32.9-157.2 82.1-222.9 147.9C477.3 617.9 428 694 395.2 775.2S346 942.7 346 1029c0 63.8 9.3 127.6 27.3 189.3l-1.5 2.6h-.1c-31 52.6-46.1 111.1-46.1 169 0 43.1 8.3 85.9 24.6 125.9 16.4 40.1 40.8 77.4 72.8 109.4 32 32.1 69.3 56.5 109.4 72.8 40 16.3 82.8 24.6 125.9 24.6 57.9 0 116.3-15.2 168.9-46.2l2.6-1.5c61.7 18 125.3 27.3 189 27.3 86.4 0 172.7-16.4 254-49.2 81.2-32.9 157.3-82.1 223-147.9 42.6-42.6 78.3-89.5 107.1-139.4 6.4-11.1 2.6-25.4-8.5-31.8s-25.4-2.5-31.8 8.6c-26.8 46.4-60 90-99.7 129.7-61.2 61.2-132 107-207.6 137.6s-156 45.8-236.5 45.8c-62.6 0-125.3-9.4-185.6-28-6.3-1.9-13-1.1-18.7 2.2l-11 6.5c-45.3 26.8-95.4 39.7-145.3 39.7-37.1 0-73.9-7.1-108.4-21.2-34.4-14.1-66.6-35-94.1-62.6-27.7-27.5-48.6-59.7-62.6-94.1-14.1-34.4-21.2-71.3-21.2-108.4 0-49.9 13-100 39.7-145.3l6.5-11c3.3-5.7 4.2-12.4 2.2-18.7-18.7-60.4-28-123.2-28-185.9 0-80.5 15.2-160.8 45.8-236.3 30.6-75.6 76.4-146.3 137.6-207.5s131.9-107 207.5-137.6 155.9-45.8 236.3-45.8c62.7 0 125.5 9.4 186 28 6.2 1.9 13 1.2 18.7-2.2l11-6.5-.1.1c45.3-26.8 95.5-39.7 145.4-39.7 37 0 73.8 7.2 108.3 21.2 34.5 14.1 66.5 35 94.2 62.6 27.5 27.7 48.5 59.7 62.6 94.2 14 34.4 21.3 71.3 21.3 108.2 0 49.9-13 100.1-39.7 145.4l-.1.1-6.5 11c-3.3 5.6-4.1 12.3-2.2 18.6 18.7 60.5 28 123.5 28 186.3 0 55.3-7.3 110.6-21.8 164.4-3.3 12.4 4 25.1 16.4 28.5 12.4 3.3 25.1-4 28.5-16.4 15.6-57.7 23.4-117 23.4-176.5 0-63.9-9.3-127.8-27.4-189.6l1.5-2.7c31.3-52.6 46.4-111.1 46.4-169.1z"/><path class="st5" d="M923.6 1349.5zm145.6-381.2z"/><path class="st3" d="M1190.8 906.4c-1.7 11.8-4.3 22-7.4 30.5-6.9 18.6-15.3 33.3-24.8 44.4-10.3 12-21.1 21.3-32.4 28.1-13.8 8.5-26.7 16.5-38.8 24.2l-.1.1c-13.2 8.4-24.8 17.5-34.8 27.5-6.4 6.3-11.5 13.8-15.1 22-3.3 7.4-5 15.5-6 23.9l-.2-.1c-1.3 6.4-3.3 12.1-5.9 17.2-2.7 5.2-6 9.8-10.2 14.3-3.9 4.2-7.6 6.8-11 8.3-3.5 1.6-6.9 2.4-11 2.4-3.9 0-8.3-.6-13.3-1.8h-.1c-3.6-1-7.1-2.5-10.9-5.3h-.1c-1.3-.8-2.5-2.1-3.8-3.6-1.3-1.6-2.7-3.7-4-6.4-.9-1.8-1.8-4.3-2.4-7.7-.7-3.4-1.1-7.7-1.1-12.8 0-10.3.8-19.6 2.5-27.7 1.6-8.2 4-15.3 7-21.5 7-14.2 15.5-26.1 25.5-36.2 10.8-10.8 22.6-20.5 35.7-28.9 14.7-9.6 28.4-19.3 40.9-29.1 13.5-10.4 25.1-22.2 34.5-35.1 5.4-7.6 9.7-16.1 12.4-25 2.7-9 4-18.5 4-28.1 0-6.4-.5-12.7-1.7-18.8-1.8-9.1-5.2-17.9-10.3-25.6-5.2-7.8-12.1-14.4-19.9-19.2-9.5-5.8-20.1-9.9-31.4-12.6-11.4-2.7-23.7-3.9-36.7-3.9-14.1 0-27 1.6-38.9 5.3-5.9 1.9-11.5 4.3-16.8 7.4-5.3 3.1-10.1 6.9-14.4 11.3-12.4 12.8-22.8 26.9-30.9 42.3-6.6 12.5-13.5 23.9-20.8 34.3-.8 1.1-1.6 1.9-2.5 2.7-1.4 1.1-3.2 2.2-6.2 3s-7 1.4-12.3 1.4c-4.4 0-8-.7-11.4-2.2-3.5-1.5-6.9-3.8-10.6-7.5-3.1-3.1-5.3-6.5-6.9-11.1-1.7-4.5-2.7-10.5-2.7-17.9 0-11.9 1.3-22.7 3.9-32.6 2.5-9.9 6.3-18.8 11.3-27.1 10.7-17.8 24.3-32.4 41.4-44.5 17.5-12.4 36.7-21.6 58-27.8h.1c21.7-6.4 42.3-9.5 61.8-9.5 30.6 0 56.7 3.4 78.2 9.8 10.9 3.1 20.5 7.1 29.2 11.7 8.6 4.6 16.2 9.8 23 15.8h-.1c6.9 6 12.8 12.6 17.9 19.7 7.5 10.6 13.3 22.3 17.2 35.9 3.9 13.4 5.9 28.6 5.9 45.6.1 15.2-.8 28.7-2.5 40.5zm-151 349.3c2.5 6.2 3.9 13.2 3.9 21.6 0 9.2-1.5 16.7-3.9 22.8-2.4 6.1-5.8 11.1-10.8 15.6-5.4 5-10.7 8.4-16.5 10.7-5.9 2.3-12.1 3.5-19.5 3.5-8.2 0-15-1.3-21-3.6s-11.2-5.6-16.4-10.5c-4.8-4.6-8-9.5-10.4-15.6-2.4-6.2-3.8-13.7-3.8-23 .1-8.9 1.4-16.1 3.8-22.4 2.4-6.2 5.9-11.5 10.9-16.6 5.1-5.1 10.4-8.6 16.3-10.9 5.9-2.4 12.6-3.7 20.7-3.7 7.1 0 13.2 1.2 18.8 3.6 5.7 2.4 11.1 6 16.6 11.5 5.3 5.4 8.9 10.8 11.3 17zM1208 757.5c-7.1-10-15.5-19.1-24.9-27.5-9.6-8.5-20.3-15.7-31.9-21.9-17.5-9.3-37.1-16.1-58.6-20.4-21.6-4.5-45.1-6.5-70.5-6.5-24.4 0-49.5 3.9-74.9 11.3-26 7.6-50.1 19.1-71.7 34.5-22.2 15.6-40.5 35.3-54.4 58.5-7.4 12.2-12.8 25.5-16.4 39.5-3.6 14-5.4 28.8-5.4 44.2 0 11.8 1.7 23.2 5.5 33.8 3.9 10.5 9.9 20.2 17.8 28 7.4 7.4 15.8 13.3 25.1 17.3 9.4 4 19.6 6 29.8 6 11.7 0 22.8-1.7 33-6.1 5.1-2.1 10-5 14.4-8.5s8.3-7.6 11.5-12.2c8.6-12.2 16.7-25.4 24-39.5 5.9-11.2 13.5-21.7 23.1-31.5 1.2-1.3 2.7-2.5 4.7-3.6 2.8-1.7 6.8-3.3 12.2-4.5 5.3-1.2 12-1.8 19.9-1.8 10.2 0 19 1 26.2 2.6 7.2 1.7 12.9 4 17.5 6.8 1.8 1.1 3 2.2 4.1 3.4 1.6 1.8 3 3.9 4 7.2s1.8 7.7 1.8 13.5c0 5.7-.7 10.4-2.1 14.6-1.2 4.2-3 7.7-5.5 11.2-6.6 9-14.9 17.6-25.4 25.8-11.4 8.8-24 17.8-37.8 26.8-15.7 10.1-30.1 21.9-43.2 34.9-13.8 13.9-25.4 30.3-34.3 48.7-5 10.1-8.6 21.1-10.9 32.7-2.4 11.7-3.4 24-3.4 36.9 0 7.6.6 14.7 1.9 21.6 1.3 6.9 3.4 13.5 6.5 19.7 2.7 5.3 5.8 10.3 9.4 14.9 3.7 4.6 8 8.6 12.7 12.1 3.5 2.5 7.7 3.5 11.6 5.4-11.1 4.8-21.3 11.5-29.8 20.2-9.4 9.3-16.7 20.4-21.4 32.6s-6.9 25.5-6.9 39.2c0 14 2.1 27.4 6.9 39.7 4.8 12.3 12.2 23.4 21.7 32.5 9.2 8.8 20 15.7 31.8 20.2s24.5 6.6 37.7 6.6c12.6 0 24.9-2.2 36.5-6.8 11.5-4.5 22-11.4 31.3-19.9 9.7-9.1 17.3-20.2 22.2-32.5 4.8-12.4 7.1-25.8 7.1-39.9 0-13.5-2.3-26.6-7.2-38.8-4.8-12.1-12.3-23.1-21.6-32.5h-.1c-9.2-9.2-19.7-16.5-31.3-21.4-.1-.1-.1-.1-.2-.1 6.8-4 13.5-8.1 19.1-13.9 7.1-7.6 13.1-16 17.8-25.1 4.7-9.2 8-19 10.1-29.2.2-1 .3-1.4.4-2.4.4-4.8 1.5-8.6 2.8-11.7 1.4-3.1 3.1-5.6 5.4-8 7.2-7.2 16.2-14.4 27-21.3 11.8-7.6 24.5-15.5 38-23.7 15.9-9.8 30.5-22.5 43.5-37.7h.1c13.7-16.2 24.6-35.8 33-58.5 4.5-12.1 7.7-25.4 9.8-39.9 2.2-14.5 3.1-30.1 3.1-47 0-27.7-4.5-53.3-14-76.3-5.1-11.5-11-22.4-18.2-32.3z"/><path class="st5" d="M919.4 1152.9zm22.1 26.9z"/></g></svg>