<?xml version="1.0" encoding="utf-8"?>
<!-- Generator: Adobe Illustrator 24.0.3, SVG Export Plug-In . SVG Version: 6.00 Build 0)  -->
<svg version="1.1" id="symbol_x5F_banner" xmlns="http://www.w3.org/2000/svg" xmlns:xlink="http://www.w3.org/1999/xlink" x="0px"
	 y="0px" viewBox="0 0 1200.2 609.8" style="enable-background:new 0 0 1200.2 609.8;" xml:space="preserve">
<style type="text/css">
	.st0{clip-path:url(#SVGID_2_);}
	.st1{fill-rule:evenodd;clip-rule:evenodd;fill:#F05F24;}
	.st2{clip-path:url(#SVGID_5_);fill:#F17661;}
	.st3{fill:#E24444;}
	.st4{fill-rule:evenodd;clip-rule:evenodd;fill:#F9A83A;}
</style>
<g id="warm_x5F_colour">
	<g>
		<defs>
			<rect id="SVGID_1_" width="1200.2" height="609.8"/>
		</defs>
		<clipPath id="SVGID_2_">
			<use xlink:href="#SVGID_1_"  style="overflow:visible;"/>
		</clipPath>
		<g id="top_2_" class="st0">
			<g id="rose_2_">
				<g>
					<path id="SVGID_3_" class="st1" d="M322.8-714.7c21.7,57.6,21.3,89-12.4,178.6C227.6-316,37.6-397.9-43.4-182.5
						c-59.4,158,22.8,333.5,183.5,391.9C359.3,289,419.6,94,643.5,175.3c224,81.4,140.6,268.1,359.9,347.7
						c82.6,30,174.6,29,241.9-33.4c248.3-230.1-132.1-505.2-304.8-612.4c-222.9-138.4-469.1-268-614.4-584.4"/>
				</g>
				<g>
					<defs>
						<path id="SVGID_4_" d="M322.8-714.7c21.7,57.6,21.3,89-12.4,178.6C227.6-316,37.6-397.9-43.4-182.5
							c-59.4,158,22.8,333.5,183.5,391.9C359.3,289,419.6,94,643.5,175.3c224,81.4,140.6,268.1,359.9,347.7
							c82.6,30,174.6,29,241.9-33.4c248.3-230.1-132.1-505.2-304.8-612.4c-222.9-138.4-469.1-268-614.4-584.4"/>
					</defs>
					<clipPath id="SVGID_5_">
						<use xlink:href="#SVGID_4_"  style="overflow:visible;"/>
					</clipPath>
					<polygon class="st2" points="1684.1,-246.9 185.5,-791.2 -151,103.7 1347.6,648 					"/>
				</g>
			</g>
			<path id="red_x5F_orange_2_" class="st3" d="M319.1-718.6c12.9,35.5,16,69.3,14.1,98.9c-2.7,22.4-9.7,48.6-22.8,83.5
				C227.6-316,37.6-397.9-43.4-182.5c-59.4,158,22.8,333.5,183.5,391.9c88.3,32.1,150.8,19.6,208.6-1.5c0,0-140.5,23-242.4-86.1
				S94.9-149.3,297.1-91.1s486.2-52.4,228.4-329l-0.3-0.3c-53.4-53.3-95.9-105.1-135.5-168c-0.2-0.4-0.4-0.7-0.6-1
				c-3.3-5.2-6.5-10.5-9.7-15.9c-1-1.6-1.9-3.2-2.9-4.8c-6.5-10.9-12.9-22.3-19.3-34c-23.8-44.2-24.6-57.9-33.9-76
				C322.1-722.6,318.2-721.1,319.1-718.6z"/>
			<path id="yellow_2_" class="st4" d="M535,155.1c32-0.2,67.5,5.3,108.5,20.2c224,81.4,140.6,268.1,359.9,347.7
				c82.6,30,197.8,47.2,241.9-33.4C1513.2,0,1113.2-15.5,940.5-122.8c0,0,202.2,147.5,254.2,295.7c56.3,160.5-36.3,215.6-182,128.4
				C847.2,202.3,748.9,142,535,155.1"/>
		</g>
	</g>
</g>
</svg>
