<svg id="symbol_banner" xmlns="http://www.w3.org/2000/svg" xmlns:xlink="http://www.w3.org/1999/xlink" viewBox="0 0 1200.2 474.44"><defs><style>.cls-1{fill:none;}.cls-2{clip-path:url(#clip-path);}.cls-3{fill:#f05f24;}.cls-3,.cls-7{fill-rule:evenodd;}.cls-4{clip-path:url(#clip-path-2);}.cls-5{fill:#f17661;}.cls-6{fill:#e24444;}.cls-7{fill:#f9a83a;}</style><clipPath id="clip-path"><rect class="cls-1" y="-104" width="1200.2" height="609.8"/></clipPath><clipPath id="clip-path-2"><path class="cls-1" d="M322.8-818.7c21.7,57.6,21.3,89-12.4,178.6C227.6-420,37.6-501.9-43.4-286.5-102.8-128.5-20.6,47,140.1,105.4,359.3,185,419.6-10,643.5,71.3S784.1,339.4,1003.4,419c82.6,30,174.6,29,241.9-33.4,248.3-230.1-132.1-505.2-304.8-612.4-222.9-138.4-469.1-268-614.4-584.4"/></clipPath></defs><title>banner_symbol</title><g id="warm_colour"><g class="cls-2"><g id="top"><g id="rose"><path id="SVGID" class="cls-3" d="M322.8-818.7c21.7,57.6,21.3,89-12.4,178.6C227.6-420,37.6-501.9-43.4-286.5-102.8-128.5-20.6,47,140.1,105.4,359.3,185,419.6-10,643.5,71.3S784.1,339.4,1003.4,419c82.6,30,174.6,29,241.9-33.4,248.3-230.1-132.1-505.2-304.8-612.4-222.9-138.4-469.1-268-614.4-584.4"/><g class="cls-4"><polygon class="cls-5" points="1684.1 -350.9 185.5 -895.2 -151 -0.3 1347.6 544 1684.1 -350.9"/></g></g><path id="red_orange" class="cls-6" d="M319.1-822.6a242.49,242.49,0,0,1,14.1,98.9c-2.7,22.4-9.7,48.6-22.8,83.5C227.6-420,37.6-501.9-43.4-286.5-102.8-128.5-20.6,47,140.1,105.4c88.3,32.1,150.8,19.6,208.6-1.5,0,0-140.5,23-242.4-86.1S94.9-253.3,297.1-195.1s486.2-52.4,228.4-329l-.3-.3c-53.4-53.3-95.9-105.1-135.5-168a8.79,8.79,0,0,0-.6-1c-3.3-5.2-6.5-10.5-9.7-15.9-1-1.6-1.9-3.2-2.9-4.8-6.5-10.9-12.9-22.3-19.3-34-23.8-44.2-24.6-57.9-33.9-76C322.1-826.6,318.2-825.1,319.1-822.6Z"/><path id="yellow" class="cls-7" d="M535,51.1c32-.2,67.5,5.3,108.5,20.2,224,81.4,140.6,268.1,359.9,347.7,82.6,30,197.8,47.2,241.9-33.4C1513.2-104,1113.2-119.5,940.5-226.8c0,0,202.2,147.5,254.2,295.7,56.3,160.5-36.3,215.6-182,128.4C847.2,98.3,748.9,38,535,51.1"/></g></g></g></svg>