<?xml version="1.0" encoding="utf-8"?>
<!-- Generator: Adobe Illustrator 24.0.3, SVG Export Plug-In . SVG Version: 6.00 Build 0)  -->
<svg version="1.1" id="snapchat" xmlns="http://www.w3.org/2000/svg" xmlns:xlink="http://www.w3.org/1999/xlink" x="0px" y="0px"
	 viewBox="0 0 41.3 39.2" style="enable-background:new 0 0 41.3 39.2;" xml:space="preserve">
<style type="text/css">
	.st0{fill:#343D72;}
</style>
<g>
	<path class="st0" d="M0,30.4c0-0.2,0-0.4,0-0.6c0.3-0.3,0.5-0.6,1-0.7c3.4-0.7,5.7-2.8,7.4-5.7C9.8,21,9.6,20.5,7,19.5
		c-0.2-0.1-0.3-0.1-0.5-0.2c-0.6-0.2-1.1-0.5-1.6-0.9c-1.2-1-0.5-2.5,0.9-2.9c1-0.2,1.9,0.4,2.9,0.5c0.7,0.1,0.9-0.1,0.8-0.8
		c-0.2-1.8-0.2-3.6-0.1-5.5c0.2-3.5,1.9-6.1,4.8-7.9c4.2-2.5,8.7-2.5,12.9,0c2.7,1.6,4.4,3.9,4.8,7.1c0.2,2.1,0.1,4.1,0,6.2
		c-0.1,0.9,0.1,1.1,1,0.9c1.1-0.3,2-0.8,3.2-0.3c0.6,0.3,1.1,0.8,1.1,1.5c0,0.5-0.3,0.9-0.6,1.2c-0.5,0.5-1.2,0.7-1.9,1
		c-0.5,0.2-1,0.4-1.5,0.6c-1,0.5-1.3,1.1-0.8,2.1c1.6,3.4,4,6,7.9,6.9c0.5,0.1,0.8,0.3,1.1,0.7c0,0.2,0,0.4,0,0.6
		c-0.4,0.8-1,1.2-1.8,1.4c-0.8,0.3-1.5,0.6-2.3,0.7c-1.1,0.1-1.7,0.6-1.9,1.7c-0.2,1.1-0.5,1.3-1.6,1.2c-0.3,0-0.5-0.1-0.8-0.1
		c-2.2-0.4-4.3-0.2-6.1,1.3c-0.4,0.3-0.7,0.5-1.1,0.8c-3.1,2-6.3,2.2-9.5,0.4c-0.9-0.5-1.7-1.1-2.6-1.7c-0.7-0.5-1.5-0.7-2.3-0.8
		c-1.4-0.2-2.7,0.1-4,0.3c-0.7,0.1-1.3-0.1-1.4-0.8c0-1.7-1.1-2.1-2.5-2.3c-0.7-0.1-1.3-0.3-1.9-0.6C0.9,31.5,0.3,31.1,0,30.4z"/>
</g>
</svg>
