<?xml version="1.0" encoding="utf-8"?>
<!-- Generator: Adobe Illustrator 24.0.3, SVG Export Plug-In . SVG Version: 6.00 Build 0)  -->
<svg version="1.1" id="bottom_x5F_logo" xmlns="http://www.w3.org/2000/svg" xmlns:xlink="http://www.w3.org/1999/xlink" x="0px"
	 y="0px" viewBox="0 0 156.7 172.7" style="enable-background:new 0 0 156.7 172.7;" xml:space="preserve">
<style type="text/css">
	.st0{fill:#2867AE;}
	.st1{fill:#5D9E66;}
	.st2{fill:#773070;}
</style>
<g id="bottom">
	<path id="blue" class="st0" d="M77.1,159.7c-1.1,4.2-1.9,8.6-2.1,13h81.8v-145c-9.7,0.2-19.8,4.3-26.6,11.6
		c-17.2,18.9-14.9,43.8-14.9,43.8c-0.1,0.2-0.3,0.3-0.4,0c0.5-10.9-1.2-21.4-0.1-32.4c-2.4,22.4,7.4,42.9-14.7,69.2
		c-2,3-3.8,5.7-5.8,8.5C87.3,138.2,80.3,147.2,77.1,159.7z"/>
	<path id="green" class="st1" d="M74.9,172.7c0.3-4.4,1-8.9,2.1-13c3.2-12.5,10.2-21.5,17.2-31.2c2-2.8,3.8-5.5,5.8-8.5
		c-31.9,37.9-63.2,8.2-94.5,45.3c-1.1,1.3-2.2,2.7-3.2,4c-0.8,1.1-1.6,2.3-2.3,3.4H74.9z"/>
	<path id="purple" class="st2" d="M114.8,83.2c0.2,0.3,0.3,0.1,0.4,0c0,0-2.3-24.8,14.9-43.8c6.7-7.4,16.8-11.4,26.6-11.6V0
		c-10.5,3.7-20.2,10.1-27.8,19.2c-9.6,11.4-13.1,21.7-14.1,31.6C113.6,61.7,115.4,72.2,114.8,83.2z"/>
</g>
</svg>
