<?xml version="1.0" encoding="utf-8"?>
<!-- Generator: Adobe Illustrator 24.0.3, SVG Export Plug-In . SVG Version: 6.00 Build 0)  -->
<svg version="1.1" id="maroon_x5F_burger_x5F_menu" xmlns="http://www.w3.org/2000/svg" xmlns:xlink="http://www.w3.org/1999/xlink"
	 x="0px" y="0px" viewBox="0 0 77.7 42.3" style="enable-background:new 0 0 77.7 42.3;" xml:space="preserve">
<style type="text/css">
	.st0{fill:#FFFFFF;}
</style>
<path id="bottom_x5F_border" class="st0" d="M69.2,15.2h-60c-1.5,0-2.7-1.2-2.7-2.7l0,0c0-1.5,1.2-2.7,2.7-2.7h60
	c1.5,0,2.7,1.2,2.7,2.7l0,0C71.9,14,70.7,15.2,69.2,15.2z"/>
<path id="top_x5F_border_1_" class="st0" d="M69.2,34.1h-60c-1.5,0-2.7-1.2-2.7-2.7l0,0c0-1.5,1.2-2.7,2.7-2.7h60
	c1.5,0,2.7,1.2,2.7,2.7l0,0C71.9,32.6,70.7,34.1,69.2,34.1z"/>
</svg>
