<?xml version="1.0" encoding="utf-8"?>
<!-- Generator: Adobe Illustrator 24.1.0, SVG Export Plug-In . SVG Version: 6.00 Build 0)  -->
<svg version="1.1" id="contact" xmlns="http://www.w3.org/2000/svg" xmlns:xlink="http://www.w3.org/1999/xlink" x="0px" y="0px"
	 viewBox="0 0 2039 2039" style="enable-background:new 0 0 2039 2039;" xml:space="preserve">
<style type="text/css">
	.st0{fill:#F2F8FC;}
	.st1{fill:#BED5F0;}
	.st2{fill:#2867AE;}
	.st3{fill:#DCEEFF;}
	.st4{fill:#7DA2C6;}
	.st5{fill:#75BA7C;stroke:#2867AE;stroke-width:32;stroke-linecap:round;stroke-linejoin:round;stroke-miterlimit:10;}
	.st6{opacity:0.25;fill:#FFFFFF;enable-background:new    ;}
	.st7{opacity:0.11;enable-background:new    ;}
	.st8{fill:#FFFFFF;}
	.st9{opacity:0.2;enable-background:new    ;}
	.st10{fill:#FFFFFF;stroke:#2867AE;stroke-width:32;stroke-linecap:round;stroke-linejoin:round;stroke-miterlimit:10;}
	.st11{opacity:0.12;enable-background:new    ;}
	.st12{fill:#CEE0F4;}
</style>
<g id="b_x5F_circle">
	<circle class="st0" cx="1019.5" cy="1019.5" r="1019.5"/>
</g>
<g id="icons">
	<g>
		<g>
			<g>
				<path class="st1" d="M735.8,1343.5c113.3,113.3,244.6,221.6,296.4,169.8c74.2-74.2,120-139,283.7-7.3
					c163.7,131.5,41.1,227-34.1,291.1c-89.3,76.2-392.4,4.4-698.1-301.4c-305.9-305.9-381-611.9-301.5-698.2
					c66.8-72.5,159.6-197.7,291.1-34c131.6,163.7,67,209.5-7.3,283.7C514.2,1099,622.5,1230.2,735.8,1343.5z"/>
				<path class="st2" d="M1183.3,1841.1c-49.8,0-109.7-12.2-174.9-36.5c-142.2-53-297.1-158.7-436-297.6
					c-139.3-139.3-245.5-294.6-298.9-437.2c-47.8-127.5-48.9-233.4-3-283.2c4.4-4.8,9-9.8,13.6-15c42.8-47.4,96-106.4,165-104.5
					c46.4,1.3,91.1,29.5,136.7,86.3c133.2,165.6,73.3,224.5,4,292.7c-4.1,4-8.3,8.2-12.5,12.4c-15.6,15.6-30.4,73.6,169.7,273.7l0,0
					c66.5,66.5,123.2,115.2,168.7,144.7c36,23.4,83.4,46.7,105.1,25.1c4.3-4.3,8.5-8.5,12.6-12.7c68.1-69.1,127-128.9,292.5,4.2
					c57.9,46.5,86.3,92.3,87,139.9c1,72.5-65.3,128.8-113.7,169.9l-7.1,6C1267.3,1830.5,1229.7,1841.1,1183.3,1841.1z M445.9,699.1
					c-53.3,0-100.2,52-138,94c-4.7,5.3-9.4,10.4-13.9,15.3c-37,40.2-33.4,136.1,9.4,250.3c51.9,138.4,155.5,289.6,291.6,425.8
					c135.7,135.7,286.5,238.8,424.5,290.3c113.3,42.2,209.8,46.2,251.9,10.3l7.1-6c46-39,103.2-87.6,102.4-145.1
					c-0.5-37-25.7-75.8-75-115.4c-143-115-183.1-74.2-249.7-6.7c-4.2,4.2-8.4,8.5-12.7,12.9c-29.6,29.6-78.4,22.6-145.2-20.8
					c-47.3-30.8-105.8-80.9-173.9-148.9l0,0l0,0c-166.7-166.7-220.6-268-169.7-319c4.3-4.3,8.5-8.4,12.7-12.5
					c67.7-66.6,108.5-106.8-6.5-249.8c-38.8-48.3-76.7-73.3-112.7-74.3C447.4,699.1,446.7,699.1,445.9,699.1z"/>
			</g>
			<g>
				<path class="st3" d="M1099.5,1552.6c4.3-4.3,8.6-8.6,12.7-12.9c45.6-46.3,78.8-79.9,141.2-59.6
					c-101.8-65.2-139.6-26.8-197.2,31.6c-4.2,4.2-8.4,8.5-12.7,12.9c-19.6,19.6-47.6,23-83.7,10.6
					C1023.8,1575.4,1070.8,1581.4,1099.5,1552.6z"/>
				<path class="st3" d="M651,1512.4c-136.1-136.1-239.7-287.4-291.6-425.8C316.6,972.4,313,876.5,350,836.3
					c4.5-4.9,9.1-10,13.9-15.3c37.8-41.9,84.7-94,138-94c0.8,0,1.5,0,2.3,0c4.2,0.1,8.5,0.6,12.8,1.4
					c-23.5-18.9-46.6-28.8-68.8-29.4c-0.8,0-1.5,0-2.3,0c-53.3,0-100.2,52-138,94c-4.7,5.3-9.4,10.4-13.9,15.3
					c-37,40.2-33.4,136.1,9.4,250.3c51.9,138.4,155.5,289.6,291.6,425.8c118.1,118.1,247.5,211.4,370,267.6
					C859.6,1695,751.2,1612.6,651,1512.4z"/>
			</g>
			<g>
				<path class="st4" d="M1345.9,1556.3c4.5,11.3,6.9,22.5,7.1,33.6c0.8,57.4-56.4,106-102.4,145.1l-7.1,6
					c-42.1,35.9-138.6,32-251.9-10.3c-138-51.5-288.8-154.5-424.5-290.3c-72.2-72.2-135.2-148.6-186.2-225.1
					c55.2,91,128.2,183.1,214.2,269.1c135.7,135.7,286.5,238.8,424.5,290.3c113.3,42.2,209.8,46.2,251.9,10.3l7.1-6
					c46-39,103.2-87.6,102.4-145.1C1380.6,1608.7,1368.8,1582.8,1345.9,1556.3z"/>
				<path class="st4" d="M539.4,979.3c-4.2,4.1-8.4,8.3-12.7,12.5c-32.6,32.6-22.1,86,33.4,163.9c-29.9-54.5-31.4-93.8-5.4-119.9
					c4.3-4.3,8.5-8.4,12.7-12.5c62.6-61.6,102.2-100.6,16.9-219.2C630.5,889.7,593.5,926,539.4,979.3z"/>
			</g>
		</g>
		<g>
			<g id="chat_1_">
				<g>
					<g>
						<path class="st5" d="M1397,786.7v55.2v306.9L1286.8,1040H960.6c-40.1,0-72.6-32.5-72.6-72.5v-254c0-40.1,32.9-72.5,73-72.5
							l252-1L1397,786.7z"/>
						<path class="st6" d="M1207.2,655.9l-246.4,1.6c-31.5,0.1-57,25.5-56.9,56.7l0.1,30c-0.1-31.2,25.4-56.6,56.9-56.7l246.4-1.6
							l173.9,137.9l-0.1-30L1207.2,655.9z"/>
						<path class="st7" d="M1286.8,994H960.6c-31.2,0-56.6-25.4-56.6-56.5v30c0,31.2,25.4,56.5,56.6,56.5h326.2
							c4.2,0,8.2,1.7,11.2,4.6l83,81.9v-30l-83-81.9C1295,995.7,1291,994,1286.8,994z"/>
					</g>
				</g>
				<g>
					<path class="st8" d="M1203,780.8h-195.1c-6.4,0-11.6-5.2-11.6-11.6c0-6.4,5.2-11.6,11.6-11.6H1203c6.4,0,11.6,5.2,11.6,11.6
						S1209.4,780.8,1203,780.8z"/>
					<path class="st8" d="M1203,852.8h-195.1c-6.4,0-11.6-5.2-11.6-11.6c0-6.4,5.2-11.6,11.6-11.6H1203c6.4,0,11.6,5.2,11.6,11.6
						S1209.4,852.8,1203,852.8z"/>
					<path class="st8" d="M1203,924.8h-195.1c-6.4,0-11.6-5.2-11.6-11.6c0-6.4,5.2-11.6,11.6-11.6H1203c6.4,0,11.6,5.2,11.6,11.6
						C1214.6,919.7,1209.4,924.8,1203,924.8z"/>
				</g>
				<path class="st9" d="M1413,786.7V821h-75.6l-98.6,98.6c-6.6,6.6-15.4,10.2-24.7,10.2c-4.6,0-9.1-0.9-13.4-2.7
					c-13.1-5.4-21.6-18.1-21.6-32.3V624.1l33.9-0.1h0.1c3.6,0,7.1,1.2,10,3.5l184,146.7C1410.8,777.2,1413,781.8,1413,786.7z"/>
				<g>
					<path class="st10" d="M1649.5,786h-326.6L1214,894.8V459.5c0-40.1,32.5-72.5,72.5-72.5h362.9c40.1,0,72.5,32.5,72.5,72.5v253.9
						C1722,753.5,1689.5,786,1649.5,786z"/>
				</g>
				<path class="st11" d="M1649.5,743h-326.6c-4.2,0-8.3,1.7-11.3,4.7l-81.5,81.5v27l81.5-81.5c3-3,7.1-4.7,11.3-4.7h326.6
					c31.2,0,56.5-25.4,56.5-56.5v-27C1706,717.6,1680.6,743,1649.5,743z"/>
				<ellipse class="st9" cx="1602.4" cy="597.4" rx="36" ry="36"/>
				<ellipse class="st9" cx="1470" cy="597.4" rx="36" ry="36"/>
				<circle class="st9" cx="1337.6" cy="597.4" r="36"/>
				<g>
					<circle class="st12" cx="1338.4" cy="591.8" r="29"/>
					<path class="st2" d="M1338.4,627.8c-19.9,0-36-16.2-36-36c0-19.9,16.2-36,36-36c19.9,0,36,16.2,36,36
						S1358.2,627.8,1338.4,627.8z M1338.4,569.7c-12.2,0-22.1,9-22.1,20.1s9.9,20.1,22.1,20.1s22.1-9,22.1-20.1
						S1350.6,569.7,1338.4,569.7z"/>
				</g>
				<g>
					<circle class="st12" cx="1470.4" cy="591.8" r="29"/>
					<path class="st2" d="M1470.4,627.8c-19.9,0-36-16.2-36-36c0-19.9,16.2-36,36-36s36,16.2,36,36S1490.3,627.8,1470.4,627.8z
						 M1470.4,569.7c-12.2,0-22.1,9.9-22.1,22.1s9.9,22.1,22.1,22.1s22.1-9.9,22.1-22.1S1482.6,569.7,1470.4,569.7z"/>
				</g>
				<g>
					<circle class="st12" cx="1602.4" cy="591.8" r="29"/>
					<path class="st2" d="M1602.4,627.8c-19.9,0-36-16.2-36-36c0-19.9,16.2-36,36-36c19.9,0,36,16.2,36,36
						S1622.3,627.8,1602.4,627.8z M1602.4,570c-12.2,0-22.1,9.8-22.1,21.9c0,12.1,9.9,21.9,22.1,21.9s22.1-9.8,22.1-21.9
						S1614.6,570,1602.4,570z"/>
				</g>
			</g>
		</g>
	</g>
</g>
</svg>
