<?xml version="1.0" encoding="utf-8"?>
<!-- Generator: Adobe Illustrator 24.0.3, SVG Export Plug-In . SVG Version: 6.00 Build 0)  -->
<svg version="1.1" id="Layer_1" xmlns="http://www.w3.org/2000/svg" xmlns:xlink="http://www.w3.org/1999/xlink" x="0px" y="0px"
	 viewBox="0 0 1557.8 523.8" style="enable-background:new 0 0 1557.8 523.8;" xml:space="preserve">
<style type="text/css">
	.st0{fill:#F05F24;}
	.st1{fill:#F17661;}
	.st2{fill:#E24444;}
	.st3{fill:#F9A83A;}
</style>
<g>
	<path class="st0" d="M774.8,300c0.6,0,1.3,0.1,1.9,0.1C776.1,300.1,775.5,300,774.8,300z"/>
	<path class="st0" d="M783.6,300.4c0.2,0,0.3,0,0.5,0C783.9,300.4,783.7,300.4,783.6,300.4z"/>
	<path class="st0" d="M807.2,300.4c0.2,0,0.4,0,0.6,0C807.6,300.4,807.4,300.4,807.2,300.4z"/>
	<path class="st0" d="M791.3,300.6c0.5,0,0.9,0,1.4,0C792.3,300.6,791.8,300.6,791.3,300.6z"/>
	<path class="st0" d="M1522.7,556.7c-0.9,1.7-1.9,3.4-2.9,5.1C1520.8,560,1521.8,558.4,1522.7,556.7z"/>
	<path class="st0" d="M1535.5,529.9c-1.4,3.5-3,7-4.5,10.4C1532.6,536.9,1534.1,533.4,1535.5,529.9z"/>
	<path class="st0" d="M1550,482.8c3.3-15.1,5.6-31.5,6.9-49.3c0.6-8.3,0.9-16.6,0.9-24.8c0,8.2-0.3,16.5-0.9,24.8
		C1555.6,451.4,1553.2,467.7,1550,482.8z"/>
	<path class="st0" d="M1555.2,369.4c0.9,7.4,1.6,14.9,2,22.5C1556.8,384.4,1556.2,376.8,1555.2,369.4z"/>
	<path class="st0" d="M1365.9,115.5c5.5,2.4,11,5,16.4,7.8C1376.9,120.6,1371.5,118,1365.9,115.5z"/>
	<path class="st0" d="M799.9,300.6c-0.1,0-0.2,0-0.3,0C799.7,300.6,799.8,300.6,799.9,300.6z"/>
	<path class="st1" d="M1182.6,420.4c218.6,0.9,261.3-189.5,127.8-270.9c-133.5-81.3-266.9-17.5-266.9-17.5
		c24.1-17.8,49.8-34,80.2-45.4c-97.5,36.6-145.7,121.6-250.6,152.7c-209.2,74.8-324.9,41.9-518.8-10.8
		c-170.8-46.5-287.1-124-287.1-124C-8.8,233.3-16.5,393.2,24.8,530.1H917C969.2,462.9,1079.5,420,1182.6,420.4z"/>
	<path class="st0" d="M1547.7,492.6c-0.4,1.6-0.8,3.2-1.2,4.8C1546.9,495.8,1547.3,494.2,1547.7,492.6z"/>
	<path class="st0" d="M1526.9,548.7L1526.9,548.7c0.4-0.7,0.7-1.4,1-2.1C1527.6,547.3,1527.3,548,1526.9,548.7z"/>
	<path class="st0" d="M1539.7,518.9c-0.5,1.5-1.1,3-1.6,4.5C1538.6,521.8,1539.2,520.4,1539.7,518.9z"/>
	<path class="st0" d="M1523.9,554.5c1-1.9,2.1-3.9,3.1-5.9l0,0C1525.9,550.7,1524.9,552.6,1523.9,554.5z"/>
	<path class="st0" d="M1542.8,509.9c-0.5,1.7-1.1,3.3-1.6,4.9C1541.7,513.2,1542.2,511.5,1542.8,509.9z"/>
	<path class="st0" d="M1545.3,501.4c-0.5,1.8-1,3.5-1.5,5.2C1544.3,504.9,1544.8,503.1,1545.3,501.4z"/>
	<path class="st2" d="M1531,540.3c-1,2.1-2,4.2-3,6.3C1529,544.5,1530,542.4,1531,540.3z"/>
	<path class="st2" d="M1541.1,514.8c-0.5,1.4-0.9,2.7-1.4,4.1C1540.2,517.5,1540.7,516.2,1541.1,514.8z"/>
	<path class="st2" d="M1538.1,523.3c-0.8,2.2-1.7,4.4-2.6,6.6C1536.4,527.7,1537.2,525.5,1538.1,523.3z"/>
	<path class="st2" d="M1523.9,554.5c-0.4,0.7-0.8,1.4-1.1,2.1C1523.1,556,1523.5,555.3,1523.9,554.5z"/>
	<path class="st2" d="M1131.9,105.1c0.1,0,0.1,0,0.2-0.1C1132,105.1,1131.9,105.1,1131.9,105.1z"/>
	<path class="st2" d="M1543.8,506.6c-0.3,1.1-0.7,2.2-1,3.3C1543.1,508.8,1543.4,507.7,1543.8,506.6z"/>
	<path class="st2" d="M1557.3,391.9c0.3,5.6,0.5,11.2,0.5,16.9C1557.7,403.1,1557.6,397.5,1557.3,391.9z"/>
	<path class="st2" d="M1550,482.8c-0.7,3.3-1.5,6.5-2.3,9.7C1548.5,489.4,1549.2,486.1,1550,482.8z"/>
	<path class="st2" d="M1546.4,497.3c-0.4,1.4-0.7,2.7-1.1,4C1545.7,500,1546.1,498.7,1546.4,497.3z"/>
	<path class="st2" d="M1554.9,367.2c0.1,0.7,0.2,1.5,0.3,2.2C1555.1,368.7,1555,367.9,1554.9,367.2z"/>
	<path class="st2" d="M1310.4,149.5c133.5,81.3,90.8,271.7-127.8,270.9C1079.5,420,969.2,462.9,917,530.1h601.8
		c0.4-0.7,0.7-1.4,1-2.1c1-2.1,2-4.2,3-6.3c1.6-3.4,3.1-6.8,4.5-10.4c0.9-2.2,1.7-4.3,2.6-6.6c0.6-1.5,1.1-3,1.6-4.5
		c0.5-1.3,1-2.7,1.4-4.1c0.6-1.6,1.1-3.3,1.6-4.9c0.3-1.1,0.7-2.2,1-3.3c0.5-1.7,1-3.5,1.5-5.2c0.4-1.3,0.8-2.7,1.1-4
		c0.4-1.6,0.8-3.2,1.2-4.8c0.8-3.2,1.6-6.4,2.3-9.7c3.3-15.1,5.6-31.5,6.9-49.3c0.6-8.3,0.9-16.6,0.9-24.8c0-5.6-0.2-11.3-0.5-16.9
		c-0.4-7.6-1.1-15.1-2-22.5c-0.1-0.7-0.2-1.5-0.3-2.2c-14.1-105.6-79.9-196.4-172.6-243.9c-5.4-2.7-10.8-5.3-16.4-7.8
		c-32.9-14.6-68.9-23.8-106.8-26.6c0,0,0,0,0,0c-2.7-0.2-5.4-0.4-8-0.5c-0.6,0-1.1-0.1-1.7-0.1c-2.6-0.1-5.1-0.2-7.6-0.3
		c-0.4,0-0.9,0-1.3,0c-2.3-0.1-4.7-0.1-7-0.1c-0.3,0-0.7,0-1,0c-2.5,0-4.9,0-7.4,0.1c-0.5,0-1,0-1.5,0c-2.5,0.1-4.9,0.1-7.3,0.2
		c-0.1,0-0.2,0-0.3,0c-2.4,0.1-4.7,0.3-7,0.4c-0.4,0-0.8,0.1-1.2,0.1c-2.3,0.2-4.7,0.4-6.9,0.6c-0.3,0-0.7,0.1-1,0.1
		c-2.3,0.2-4.5,0.5-6.7,0.7c-0.1,0-0.2,0-0.3,0c-2.3,0.3-4.6,0.6-6.8,0.9c-0.3,0.1-0.7,0.1-1,0.2c-2.3,0.3-4.5,0.7-6.7,1.1
		c0,0-0.1,0-0.1,0c-2.2,0.4-4.4,0.8-6.6,1.3c-0.2,0-0.4,0.1-0.6,0.1c-2.2,0.4-4.3,0.9-6.4,1.4c-0.2,0-0.4,0.1-0.6,0.1
		c-4.3,1-8.6,2.1-12.7,3.3c-0.2,0-0.3,0.1-0.5,0.1c-6.4,1.9-12.6,3.9-18.6,6.2c-0.1,0-0.1,0-0.2,0.1c-30.5,11.5-56.2,27.6-80.2,45.4
		C1043.5,132,1176.9,68.2,1310.4,149.5z"/>
	<path class="st3" d="M767.3,299.5c2.5,0.2,5,0.3,7.5,0.5C772.4,299.9,769.9,299.7,767.3,299.5z"/>
	<path class="st3" d="M776.7,300.1c2.3,0.1,4.6,0.2,6.9,0.3C781.3,300.3,779,300.2,776.7,300.1z"/>
	<path class="st3" d="M799.6,300.6c-2.3,0-4.6,0-6.9,0C795,300.6,797.3,300.6,799.6,300.6z"/>
	<path class="st3" d="M784,300.4c2.5,0.1,4.9,0.1,7.3,0.2C788.9,300.5,786.5,300.5,784,300.4z"/>
	<path class="st3" d="M799.9,300.6c2.5,0,4.9-0.1,7.4-0.2C804.8,300.5,802.3,300.5,799.9,300.6z"/>
	<path class="st3" d="M873.2,239.3c-21.8,6.5-46,10.6-73.5,11.5c-0.2,0-0.4,0-0.6,0c-2.4,0.1-4.9,0.1-7.4,0.2c-0.1,0-0.2,0-0.3,0
		c-2.3,0-4.6,0-6.9,0c-0.5,0-0.9,0-1.4,0c-2.4,0-4.8-0.1-7.3-0.2c-0.2,0-0.3,0-0.5,0c-2.3-0.1-4.5-0.2-6.9-0.3
		c-0.6,0-1.3-0.1-1.9-0.1c-2.5-0.1-5-0.3-7.5-0.5C512.1,231.9,540.5,18.6,298.7,1C207.6-5.7,116.2,21.8,67.3,104.4
		c0,0,116.3,77.5,287.1,124C548.3,281.2,664,314.1,873.2,239.3z"/>
</g>
</svg>
