<?xml version="1.0" encoding="utf-8"?>
<!-- Generator: Adobe Illustrator 24.0.3, SVG Export Plug-In . SVG Version: 6.00 Build 0)  -->
<svg version="1.1" id="keep_x5F_it_x5F_neutral_x5F_symbol"
	 xmlns="http://www.w3.org/2000/svg" xmlns:xlink="http://www.w3.org/1999/xlink" x="0px" y="0px" viewBox="0 0 907.6 282.5"
	 style="enable-background:new 0 0 907.6 282.5;" xml:space="preserve">
<style type="text/css">
	.st0{fill:#FFFFFF;}
	.st1{fill-rule:evenodd;clip-rule:evenodd;fill:#F17661;}
	.st2{fill:#E24443;}
	.st3{fill-rule:evenodd;clip-rule:evenodd;fill:#F8A73A;}
	.st4{fill-rule:evenodd;clip-rule:evenodd;fill:#2867AE;}
	.st5{fill-rule:evenodd;clip-rule:evenodd;fill:#5D9E66;}
	.st6{fill:#773070;}
</style>
<g id="white_x5F_markword">
	<path class="st0" d="M341.4,165.1h-12.3v-60h12.3v26.1l17-26.1h14.3L353.3,134l19.4,31.1h-14.5l-16.8-26.7V165.1z"/>
	<path class="st0" d="M385.6,147c1,5.8,5.2,9.4,10.9,9.4c4.2,0,7.8-2.1,9.6-5.4l10.5,2.9c-4.1,8.1-11.4,12.7-20.2,12.7
		c-13.2,0-22.7-9.4-22.7-22.3c0-13,9.1-22.2,22-22.2c13.3,0,22.6,9.4,22.6,22.8l-0.1,2.2L385.6,147L385.6,147z M406.5,140.5
		c-1-5.5-5-8.8-10.6-8.8c-5.5,0-9.2,3.1-10.3,8.8H406.5z"/>
	<path class="st0" d="M435.6,147c1,5.8,5.2,9.4,10.9,9.4c4.2,0,7.8-2.1,9.6-5.4l10.5,2.9c-4.1,8.1-11.4,12.7-20.2,12.7
		c-13.2,0-22.7-9.4-22.7-22.3c0-13,9.1-22.2,22-22.2c13.3,0,22.6,9.4,22.6,22.8l-0.1,2.2L435.6,147L435.6,147z M456.5,140.5
		c-1-5.5-5-8.8-10.6-8.8c-5.5,0-9.2,3.1-10.3,8.8H456.5z"/>
	<path class="st0" d="M487.9,123.5v5.1c3.4-4.6,7.5-6.6,13.7-6.6c4.4,0,8.1,1.1,11.6,3.4c6.3,4.3,9.5,10.6,9.5,19
		c0,13.3-8.3,22.1-20.8,22.1c-6,0-10.4-1.9-14-5.9v23.1h-11.4v-60.3L487.9,123.5L487.9,123.5z M487.9,144.8
		c0,7.6,4.4,12.6,11.1,12.6s11.4-5.3,11.4-12.7c0-7.6-4.6-13-11.1-13C492.6,131.7,487.9,137.1,487.9,144.8z"/>
	<path class="st0" d="M565.2,165.1h-12.3v-60h12.3V165.1z"/>
	<path class="st0" d="M589.1,152.9c0,2,0.7,2.5,3.2,2.7h2v9.5h-9.1c-5.6-0.2-7.6-2.4-7.6-7.9v-24.3h-4.8v-9.6h4.8v-11.2H589v11.2
		h5.2v9.6H589L589.1,152.9L589.1,152.9z"/>
	<path class="st0" d="M640,165.1h-12.3v-60h12.1l25.1,37.4v-37.4h12.3v60h-12.1l-25.2-38v38H640z"/>
	<path class="st0" d="M698.7,147c1,5.8,5.2,9.4,10.9,9.4c4.2,0,7.8-2.1,9.6-5.4l10.5,2.9c-4.1,8.1-11.4,12.7-20.2,12.7
		c-13.2,0-22.7-9.4-22.7-22.3c0-13,9.1-22.2,22-22.2c13.3,0,22.6,9.4,22.6,22.8l-0.1,2.2L698.7,147L698.7,147z M719.6,140.5
		c-1-5.5-4.9-8.8-10.6-8.8c-5.5,0-9.2,3.1-10.3,8.8H719.6z"/>
	<path class="st0" d="M775.3,123.5v26.4c0,6.1-1.3,9.5-4.7,12.4c-3.3,2.8-8,4.3-13.5,4.3c-5.8,0-10.7-1.6-13.9-4.6
		c-3-2.7-4.4-6.7-4.4-12.1v-26.4h11.4v25.6c0,4.7,2.8,7.8,6.9,7.8c4.2,0,6.8-2.7,6.8-7.1v-26.4h11.4V123.5z"/>
	<path class="st0" d="M797.8,152.9c0,2,0.7,2.5,3.2,2.7h2v9.5h-9.1c-5.6-0.2-7.6-2.4-7.6-7.9v-24.3h-4.8v-9.6h4.8v-11.2h11.4v11.2
		h5.2v9.6h-5.2L797.8,152.9L797.8,152.9z"/>
	<path class="st0" d="M823.2,123.5v6.1c1.2-3.1,2-4.3,3.7-5.6c1.8-1.3,4.2-2,6.8-2c0.3,0,0.7,0,1.3,0.1v11.7
		c-0.9-0.1-1.8-0.2-2.4-0.2c-3.2,0-6,1.4-7.6,3.8c-1.4,1.9-1.7,3.7-1.7,7.6v20.1h-11.4v-41.7L823.2,123.5L823.2,123.5z"/>
	<path class="st0" d="M873.5,123.5h11.4v41.7h-11.4v-5.8c-3.9,4.9-8.4,7.2-14.5,7.2c-11.7,0-20.1-9.1-20.1-21.8
		c0-13.1,8.8-22.8,21-22.8c5.7,0,9.5,2,13.6,6.8V123.5z M851.2,144.6c0,7.3,4.8,12.8,11,12.8c6.4,0,11.5-5.9,11.5-13.1
		c0-7.4-4.7-12.6-11.4-12.6C855.7,131.7,851.2,137,851.2,144.6z"/>
	<path class="st0" d="M896.2,165.1v-60h11.4v60H896.2z"/>
</g>
<g id="top_2_">
	<g id="rose_2_">
		<g>
			<path id="SVGID_1_" class="st1" d="M225.3,97.5c-9.3-0.8-13.6-2.9-23.7-13.2c-25-25.3-1.7-45.7-26.2-70.5
				C157.5-4.4,128.2-4.6,110,13.3c-24.8,24.5-1.8,45.2-27.2,70.2s-45.7,1.7-70.5,26.2c-9.3,9.2-15,21.7-10.7,34.8
				c15.9,48.3,77.8,14.7,103.4-1.7c33-21.2,66.4-46.1,119-45.3"/>
		</g>
	</g>
	<path id="red_x5F_orange_2_" class="st2" d="M226,97.3c-5.7-0.5-10.5-2.3-14.5-4.5c-2.9-1.8-6.1-4.4-10-8.5
		c-25-25.3-1.7-45.7-26.2-70.5c-17.9-18.2-47.2-18.4-65.4-0.5c-10,9.9-12.2,19.1-13,28.3c0,0,5.7-20.5,27.2-27.2
		c21.4-6.7,38,15.9,17.2,39.5c-20.8,23.5-23.6,69,30.7,52h0.1c10.7-3.8,20.5-6.2,31.7-7.5c0.1,0,0.1,0,0.2,0
		c0.9-0.1,1.9-0.2,2.8-0.3c0.3,0,0.6-0.1,0.8-0.1c1.9-0.2,3.9-0.3,5.9-0.4c7.6-0.4,9.5,0.4,12.6,0.3C226.4,97.9,226.4,97.3,226,97.3
		z"/>
	<path id="yellow_2_" class="st3" d="M92.4,70.1c-2,4.3-5,8.8-9.7,13.3c-25.4,25-45.7,1.7-70.5,26.2c-9.3,9.2-15,21.7-10.7,34.8
		c15.9,48.3,77.8,14.7,103.4-1.7c0,0-33.1,17.8-56.7,15.3c-25.6-2.7-27.3-18.8-6.1-32.8C66.1,109.2,80.6,99.8,92.4,70.1"/>
</g>
<g id="bottom_2_">
	<g id="blue_2_">
		<g>
			<path id="SVGID_3_" class="st4" d="M52.6,184.7c9.3,0.8,18.7,3.1,28.9,13.4c25,25.3,1.7,45.7,26.2,70.5
				c17.9,18.2,47.2,18.4,65.4,0.5C198,244.7,175,224,200.3,199c25.4-25,45.7-1.7,70.5-26.2c9.3-9.2,15-21.7,10.7-34.8
				c-15.9-48.3-77.8-14.7-103.4,1.7C145.1,160.9,108.2,188.2,52.6,184.7"/>
		</g>
	</g>
	<path id="green_2_" class="st5" d="M205,193.3c5.6-6.5,11.2-12.5,14.3-21.2c3.2-8.8,4.4-19.4-0.3-27.8
		c-5.4-9.9-17.1-12.7-27.6-12.6c29.4-16.5,76.5-35,90.1,6.3c4.3,13.1-1.4,25.6-10.7,34.8c-24.8,24.5-45.2,1.2-70.5,26.2
		C201.9,197,203.4,195.2,205,193.3z"/>
	<path id="purple_2_" class="st6" d="M187,224.3c0,0,0,17.9-13.5,30.3c-13.5,12.3-41.2,7.9-38.3-16.3c2.1-17.2,18.4-53-8.3-68.2
		c-14.4,6.7-30.3,12-48.3,14.1c-0.1,0-0.1,0-0.2,0c-6,0.7-12.2,1-18.7,0.9c-3.4-0.2-5.5-0.5-7.5-0.4c-0.4,0-0.5,0.6,0,0.7
		c18,1.7,29.9,13.6,30.6,14.3c22.9,24.7,0.9,44.8,24.9,69.2c17.9,18.2,47.2,18.4,65.4,0.5c16.1-15.9,12.1-30.2,14.2-45.1
		C187.2,224.1,187.1,224.2,187,224.3z"/>
</g>
</svg>
