<?xml version="1.0" encoding="utf-8"?>
<!-- Generator: Adobe Illustrator 24.0.3, SVG Export Plug-In . SVG Version: 6.00 Build 0)  -->
<svg version="1.1" id="keep_x5F_it_x5F_neutral_x5F_symbol"
	 xmlns="http://www.w3.org/2000/svg" xmlns:xlink="http://www.w3.org/1999/xlink" x="0px" y="0px" viewBox="0 0 282.9 282.7"
	 style="enable-background:new 0 0 282.9 282.7;" xml:space="preserve">
<style type="text/css">
	.st0{fill-rule:evenodd;clip-rule:evenodd;fill:#F17661;}
	.st1{fill:#E24443;}
	.st2{fill-rule:evenodd;clip-rule:evenodd;fill:#F8A73A;}
	.st3{fill-rule:evenodd;clip-rule:evenodd;fill:#2867AE;}
	.st4{fill-rule:evenodd;clip-rule:evenodd;fill:#5D9E66;}
	.st5{fill:#773070;}
</style>
<g id="top_2_">
	<g id="rose_2_">
		<g>
			<path id="SVGID_1_" class="st0" d="M225.3,97.5c-9.3-0.8-13.6-2.9-23.7-13.2c-25-25.3-1.7-45.7-26.2-70.5
				C157.5-4.4,128.2-4.6,110,13.3c-24.8,24.5-1.8,45.2-27.2,70.2s-45.7,1.7-70.5,26.2c-9.3,9.2-15,21.7-10.7,34.8
				c15.9,48.3,77.8,14.7,103.4-1.7c33-21.2,66.4-46.1,119-45.3"/>
		</g>
	</g>
	<path id="red_x5F_orange_2_" class="st1" d="M226,97.3c-5.7-0.5-10.5-2.3-14.5-4.5c-2.9-1.8-6.1-4.4-10-8.5
		c-25-25.3-1.7-45.7-26.2-70.5c-17.9-18.2-47.2-18.4-65.4-0.5c-10,9.9-12.2,19.1-13,28.3c0,0,5.7-20.5,27.2-27.2
		c21.4-6.7,38,15.9,17.2,39.5c-20.8,23.5-23.6,69,30.7,52h0.1c10.7-3.8,20.5-6.2,31.7-7.5c0.1,0,0.1,0,0.2,0
		c0.9-0.1,1.9-0.2,2.8-0.3c0.3,0,0.6-0.1,0.8-0.1c1.9-0.2,3.9-0.3,5.9-0.4c7.6-0.4,9.5,0.4,12.6,0.3C226.4,97.9,226.4,97.3,226,97.3
		z"/>
	<path id="yellow_2_" class="st2" d="M92.4,70.1c-2,4.3-5,8.8-9.7,13.3c-25.4,25-45.7,1.7-70.5,26.2c-9.3,9.2-15,21.7-10.7,34.8
		c15.9,48.3,77.8,14.7,103.4-1.7c0,0-33.1,17.8-56.7,15.3c-25.6-2.7-27.3-18.8-6.1-32.8C66.1,109.2,80.6,99.8,92.4,70.1"/>
</g>
<g id="bottom_2_">
	<g id="blue_2_">
		<g>
			<path id="SVGID_3_" class="st3" d="M52.6,184.7c9.3,0.8,18.7,3.1,28.9,13.4c25,25.3,1.7,45.7,26.2,70.5
				c17.9,18.2,47.2,18.4,65.4,0.5C198,244.7,175,224,200.3,199c25.4-25,45.7-1.7,70.5-26.2c9.3-9.2,15-21.7,10.7-34.8
				c-15.9-48.3-77.8-14.7-103.4,1.7C145.1,160.9,108.2,188.2,52.6,184.7"/>
		</g>
	</g>
	<path id="green_2_" class="st4" d="M205,193.3c5.6-6.5,11.2-12.5,14.3-21.2c3.2-8.8,4.4-19.4-0.3-27.8
		c-5.4-9.9-17.1-12.7-27.6-12.6c29.4-16.5,76.5-35,90.1,6.3c4.3,13.1-1.4,25.6-10.7,34.8c-24.8,24.5-45.2,1.2-70.5,26.2
		C201.9,197,203.4,195.2,205,193.3z"/>
	<path id="purple_2_" class="st5" d="M187,224.3c0,0,0,17.9-13.5,30.3c-13.5,12.3-41.2,7.9-38.3-16.3c2.1-17.2,18.4-53-8.3-68.2
		c-14.4,6.7-30.3,12-48.3,14.1c-0.1,0-0.1,0-0.2,0c-6,0.7-12.2,1-18.7,0.9c-3.4-0.2-5.5-0.5-7.5-0.4c-0.4,0-0.5,0.6,0,0.7
		c18,1.7,29.9,13.6,30.6,14.3c22.9,24.7,0.9,44.8,24.9,69.2c17.9,18.2,47.2,18.4,65.4,0.5c16.1-15.9,12.1-30.2,14.2-45.1
		C187.2,224.1,187.1,224.2,187,224.3z"/>
</g>
</svg>
