<svg xmlns="http://www.w3.org/2000/svg" xmlns:xlink="http://www.w3.org/1999/xlink" viewBox="0 0 880.16 663.92"><defs><style>.cls-1,.cls-4{fill:#f05e22;}.cls-1,.cls-2{clip-rule:evenodd;}.cls-2,.cls-9{fill:#5b5f8c;}.cls-3{fill:#444345;}.cls-12,.cls-4,.cls-8,.cls-9{fill-rule:evenodd;}.cls-5{clip-path:url(#clip-path);}.cls-6{fill:#f17661;}.cls-7{fill:#e24443;}.cls-8{fill:#f8a73a;}.cls-10{clip-path:url(#clip-path-2);}.cls-11{fill:#3866ab;}.cls-12{fill:#5d9e66;}.cls-13{fill:#70336e;}</style><clipPath id="clip-path"><path class="cls-1" d="M530.27,225.68c-9.73-1.38-14.12-3.83-24.2-15.3-24.78-28.19.95-48.24-23.3-75.83a48.81,48.81,0,0,0-68.87-4.44c-27.59,24.26-4.66,47.44-32.84,72.22s-48.24-1-75.84,23.31c-10.39,9.13-17.14,21.93-13.39,36,13.8,51.84,81,20.16,109,4.44,36.14-20.29,72.79-44.48,128.17-40.49"/></clipPath><clipPath id="clip-path-2"><path class="cls-2" d="M343.27,307.1c9.73,1.39,19.54,4.4,29.62,15.87,24.78,28.19-.95,48.24,23.3,75.83a48.81,48.81,0,0,0,68.88,4.44C492.66,379,469.72,355.8,497.91,331s48.23,1,75.83-23.3c10.39-9.14,17.14-21.94,13.4-36-13.81-51.85-81-20.16-109-4.44C442,287.57,401.6,314.15,343.27,307.1"/></clipPath></defs><title>logo</title><g id="keep_it_netural"><path class="cls-3" d="M164.52,522h-12.2V462.59h12.2v25.82l16.82-25.82h14.15l-19.23,28.57L195.49,522H181.16l-16.64-26.43Z"/><path class="cls-3" d="M208.21,504.07c1,5.7,5.17,9.26,10.77,9.26a10.58,10.58,0,0,0,9.53-5.34l10.41,2.84c-4.09,8-11.3,12.55-20,12.55-13.08,0-22.42-9.25-22.42-22.07s9-22,21.71-22c13.18,0,22.34,9.25,22.34,22.52l-.09,2.22Zm20.65-6.5c-1-5.43-4.89-8.72-10.5-8.72-5.43,0-9.08,3.12-10.15,8.72Z"/><path class="cls-3" d="M257.7,504.07c1,5.7,5.16,9.26,10.77,9.26A10.57,10.57,0,0,0,278,508l10.41,2.84c-4.09,8-11.3,12.55-20,12.55-13.09,0-22.43-9.25-22.43-22.07s9-22,21.72-22c13.17,0,22.34,9.25,22.34,22.52l-.09,2.22Zm20.65-6.5c-1-5.43-4.9-8.72-10.51-8.72-5.42,0-9.07,3.12-10.14,8.72Z"/><path class="cls-3" d="M309.41,480.75v5.08c3.38-4.55,7.38-6.5,13.53-6.5a19.81,19.81,0,0,1,11.48,3.38c6.23,4.27,9.34,10.5,9.34,18.78,0,13.17-8.19,21.89-20.56,21.89-6,0-10.32-1.86-13.79-5.87v22.87H298.1V480.75Zm0,21.1c0,7.47,4.36,12.46,10.94,12.46s11.31-5.26,11.31-12.55c0-7.57-4.54-12.91-11-12.91C314,488.85,309.41,494.19,309.41,501.85Z"/><path class="cls-3" d="M385.86,522h-12.2V462.59h12.2Z"/><path class="cls-3" d="M409.44,509.86c0,1.95.71,2.49,3.2,2.67h2V522h-9c-5.52-.18-7.56-2.4-7.47-7.83v-24h-4.72v-9.53h4.72v-11h11.3v11h5.16v9.53h-5.16Z"/><path class="cls-3" d="M459.81,522H447.62V462.59h12l24.84,37v-37h12.19V522H484.73L459.81,484.4Z"/><path class="cls-3" d="M517.84,504.07c1,5.7,5.16,9.26,10.77,9.26a10.57,10.57,0,0,0,9.52-5.34l10.41,2.84c-4.09,8-11.3,12.55-20,12.55-13.09,0-22.43-9.25-22.43-22.07s9-22,21.72-22c13.17,0,22.34,9.25,22.34,22.52l-.09,2.22Zm20.65-6.5c-1-5.43-4.9-8.72-10.51-8.72-5.43,0-9.07,3.12-10.14,8.72Z"/><path class="cls-3" d="M593.58,480.75v26.08c0,6.05-1.25,9.43-4.63,12.28s-7.92,4.27-13.35,4.27c-5.7,0-10.59-1.6-13.8-4.53-2.93-2.67-4.36-6.59-4.36-12V480.75h11.3v25.37c0,4.63,2.76,7.74,6.86,7.74s6.67-2.67,6.67-7V480.75Z"/><path class="cls-3" d="M615.83,509.86c0,1.95.71,2.49,3.2,2.67h2V522h-9c-5.52-.18-7.57-2.4-7.48-7.83v-24H599.8v-9.53h4.72v-11h11.31v11H621v9.53h-5.16Z"/><path class="cls-3" d="M640.92,480.75v6.05c1.16-3,2-4.27,3.65-5.52a11.84,11.84,0,0,1,6.68-1.95,8.68,8.68,0,0,1,1.33.09V491c-.89-.09-1.78-.18-2.4-.18a9.15,9.15,0,0,0-7.57,3.74c-1.33,1.87-1.69,3.65-1.69,7.56V522h-11.3V480.75Z"/><path class="cls-3" d="M690.67,480.75H702V522H690.67v-5.7c-3.82,4.9-8.27,7.12-14.33,7.12-11.57,0-19.84-9-19.84-21.53,0-13,8.72-22.52,20.73-22.52,5.61,0,9.44,1.95,13.44,6.67ZM668.6,501.67c0,7.21,4.72,12.64,10.86,12.64,6.32,0,11.39-5.88,11.39-13,0-7.3-4.63-12.46-11.3-12.46C673.14,488.85,668.6,494.1,668.6,501.67Z"/><path class="cls-3" d="M713.1,522V462.59h11.3V522Z"/></g><g id="symbol"><g id="top"><g id="rose"><path class="cls-4" d="M530.27,225.68c-9.73-1.38-14.12-3.83-24.2-15.3-24.78-28.19.95-48.24-23.3-75.83a48.81,48.81,0,0,0-68.87-4.44c-27.59,24.26-4.66,47.44-32.84,72.22s-48.24-1-75.84,23.31c-10.39,9.13-17.14,21.93-13.39,36,13.8,51.84,81,20.16,109,4.44,36.14-20.29,72.79-44.48,128.17-40.49"/><g class="cls-5"><rect class="cls-6" x="281.02" y="161.81" width="251.17" height="152.61" transform="translate(-56 327.7) rotate(-41.31)"/></g></g><path id="red_orange" class="cls-7" d="M531.1,225.47a39.3,39.3,0,0,1-15-5.57,59.39,59.39,0,0,1-10.05-9.52c-24.78-28.19.95-48.24-23.3-75.83a48.81,48.81,0,0,0-68.87-4.44c-11.12,9.77-14,19.37-15.39,29,0,0,7.27-21.19,30.24-27s39,19.07,15.69,42.59-29,71.22,29.22,56.61h.07a147.45,147.45,0,0,1,33.77-5.95h.2l3-.13.89,0c2-.07,4.1-.1,6.22-.09,8,.08,10,1,13.23,1.1C531.43,226.19,531.52,225.54,531.1,225.47Z"/><path id="yellow" class="cls-8" d="M392,188.86a47.63,47.63,0,0,1-11,13.47c-28.2,24.78-48.24-1-75.84,23.31-10.39,9.13-17.14,21.93-13.39,36,13.8,51.84,81,20.16,109,4.44,0,0-35.87,16.73-60.61,12.65-26.79-4.42-27.62-21.42-4.45-34.94,26.3-15.34,42.14-24.35,56.29-54.92"/></g><g id="bottom"><g id="blue"><path class="cls-9" d="M343.27,307.1c9.73,1.39,19.54,4.4,29.62,15.87,24.78,28.19-.95,48.24,23.3,75.83a48.81,48.81,0,0,0,68.88,4.44C492.66,379,469.72,355.8,497.91,331s48.23,1,75.83-23.3c10.39-9.14,17.14-21.94,13.4-36-13.81-51.85-81-20.16-109-4.44C442,287.57,401.6,314.15,343.27,307.1"/><g class="cls-10"><rect class="cls-11" x="346.77" y="218.92" width="251.17" height="152.62" transform="translate(-77.34 385.33) rotate(-41.31)"/></g></g><path id="green" class="cls-12" d="M482.32,358.88c1.51-9.15,4.81-18.39,15.59-27.86,28.19-24.78,48.23,1,75.83-23.3,10.39-9.14,17.14-21.94,13.4-36-11.79-44.28-62.49-27.64-94.48-12,46.22,2.19,32.26,50.17,10.35,65.51s-20.69,33.69-20.69,33.69Z"/><path id="purple" class="cls-13" d="M482.37,356.83s-1.05,18.89-16,31.05-43.9,5.85-39.31-19.42c3.27-18,22.51-54.71-4.62-72.33A162.56,162.56,0,0,1,370.74,308h-.2a153.74,153.74,0,0,1-19.73-.22c-3.61-.38-5.81-.86-7.88-.92a.36.36,0,0,0-.09.71c18.8,2.9,30.65,16.09,31.31,16.85,22.63,27.41-1.78,47.25,22,74.35a48.81,48.81,0,0,0,68.88,4.44c17.91-15.75,14.53-31.05,17.66-46.63Z"/></g></g></svg>