<?xml version="1.0" encoding="utf-8"?>
<!-- Generator: Adobe Illustrator 24.0.3, SVG Export Plug-In . SVG Version: 6.00 Build 0)  -->
<svg version="1.1" id="keep_x5F_it_x5F_neutral_x5F_symbol"
	 xmlns="http://www.w3.org/2000/svg" xmlns:xlink="http://www.w3.org/1999/xlink" x="0px" y="0px" viewBox="0 0 157 157"
	 style="enable-background:new 0 0 157 157;" xml:space="preserve">
<style type="text/css">
	.st0{clip-path:url(#SVGID_2_);}
	.st1{clip-path:url(#SVGID_4_);fill:#F17661;}
	.st2{fill:#E24444;}
	.st3{fill-rule:evenodd;clip-rule:evenodd;fill:#F9A83A;}
	.st4{clip-path:url(#SVGID_7_);}
	.st5{fill-rule:evenodd;clip-rule:evenodd;fill:#2867AE;}
	.st6{fill-rule:evenodd;clip-rule:evenodd;fill:#5D9E66;}
	.st7{fill:#773170;}
	.st8{opacity:0.96;fill:#FFFFFF;enable-background:new    ;}
</style>
<g>
	<g>
		<g>
			<g>
				<g>
					<defs>
						<circle id="SVGID_1_" cx="78.5" cy="78.5" r="78.5"/>
					</defs>
					<clipPath id="SVGID_2_">
						<use xlink:href="#SVGID_1_"  style="overflow:visible;"/>
					</clipPath>
					<g id="top_2_" class="st0">
						<g id="rose_2_">
							<g>
								<g>
									<g>
										<g>
											<defs>
												<path id="SVGID_3_" d="M-67.4,59.9c9.1,3.5,12.8,7.1,20,20.6c17.6,33.2-12.1,46.7,5,79.1c12.6,23.8,41.9,33,65.9,20.4
													c32.5-17.2,50.5,12.2,83.6-5.2s11.8-45.2,44.3-62.4c12.4-6.4,21.8-17.3,21.3-31.9c-1.2-53.6-23.2-193.6-54-184.9
													C-50.2-161-13.3,77.1-66.2,60.2"/>
											</defs>
											<clipPath id="SVGID_4_">
												<use xlink:href="#SVGID_3_"  style="overflow:visible;"/>
											</clipPath>
											
												<rect x="-69.8" y="0.4" transform="matrix(0.7482 -0.6634 0.6634 0.7482 -36.8289 56.3278)" class="st1" width="251.2" height="152.6"/>
										</g>
									</g>
								</g>
							</g>
						</g>
						<path id="red_x5F_orange_2_" class="st2" d="M198.4,68.5c-6.3-0.9-11.5-3-15.7-5.5c-3.1-2.1-6.4-5-10.6-9.5
							c-26.1-28.1,0.8-48.2-24.8-75.7c-18.8-20.2-51.1-22-72.3-4.1c-11.6,9.8-14.6,19.4-16,29c0,0,7.5-21.2,31.6-27.1
							c15.8-3.9,28.8,6,27.2,22.6C116.3,13.7,101.5,21.8,95,35c-4.8,9.9-8.1,23.5-1,33.2c9.7,13.1,30.7,9.8,44.1,6.5h0.1
							c12-3.4,23-5.4,35.4-6.1c0.1,0,0.1,0,0.2,0c1-0.1,2.1-0.1,3.1-0.1c0.3,0,0.6,0,0.9,0c2.1-0.1,4.3-0.1,6.5-0.1
							c8.4,0,10.5,1,13.9,1C198.8,69.2,198.9,68.6,198.4,68.5z"/>
						<path id="yellow_2_" class="st3" d="M66.7-5.2C49.9-4.4,25.8,3.4,13,14.7c-28.1,24.9-25.3,25.6-52.8,50
							c-10.4,9.2-17,22-13.2,36c14,51.8,81.1,19.8,109,4c0,0-35.8,16.9-60.6,12.9c-26.8-4.3-27.7-21.3-4.6-34.9
							C5.8,73.9,22,63,32.7,49.3C45.6,32.7,55.6,12.6,66.7-5.2z"/>
					</g>
				</g>
			</g>
		</g>
	</g>
	<g>
		<g>
			<g>
				<g>
					<defs>
						<circle id="SVGID_6_" cx="78.5" cy="78.5" r="78.5"/>
					</defs>
					<clipPath id="SVGID_7_">
						<use xlink:href="#SVGID_6_"  style="overflow:visible;"/>
					</clipPath>
					<g id="bottom_2_" class="st4">
						<g id="blue_2_">
							<g>
								<path id="SVGID_5_" class="st5" d="M-38.7,118.4c9.7,1.3,19.6,4.3,29.7,15.7c24.9,28.1-0.7,48.2,23.6,75.7
									c17.9,20.2,48.7,22,68.9,4.1c27.5-24.4,4.4-47.5,32.5-72.4s48.2,0.7,75.7-23.6c10.4-9.2,17-22,13.2-36.1
									c-14-51.8-81.1-19.8-109-4C59.9,98.4,19.6,125.2-38.7,118.4"/>
							</g>
						</g>
						<path id="green_2_" class="st6" d="M120.7,135.3c15.3-14.4,27.9-30,18.1-50.2c-5.2-10.7-17.3-14.3-28.3-14.8
							C142.4,54.6,193,37.7,205,81.9c3.8,14-2.9,26.9-13.2,36.1c-27.5,24.4-80.2,71.1-108.3,96c1.4-1.2-0.9-11.4-0.9-13.2
							c-0.3-10.4,1.3-20.8,5.6-30.3C93.6,158.3,108.1,147.2,120.7,135.3z"/>
						<path id="purple_2_" class="st7" d="M128.7,200.6c0,0-29.1-14.2-44-2s-43.9,6-39.4-19.2c3.2-18,22.3-54.8-4.9-72.3
							c-15.6,6.3-32.6,11-51.6,12.1c-0.1,0-0.1,0-0.2,0c-6.3,0.4-12.9,0.3-19.7-0.1c-3.6-0.4-5.8-0.8-7.9-0.9
							c-0.4,0-0.5,0.6-0.1,0.7c18.8,2.8,30.7,16,31.4,16.7c22.7,27.3-1.6,47.3,22.4,74.3c17.9,20.2,48.7,22,68.9,4.1
							C101.3,198.2,125.6,216.2,128.7,200.6C128.6,200.6,128.8,200.5,128.7,200.6z"/>
					</g>
				</g>
			</g>
		</g>
	</g>
</g>
<path id="play" class="st8" d="M94.9,79.7L63.2,94.8c-0.8,0.4-1.8-0.2-1.8-1.1V62.5c0-0.9,1-1.6,1.8-1.1l31.7,16
	C95.8,77.9,95.8,79.2,94.9,79.7L94.9,79.7z"/>
</svg>
