<?xml version="1.0" encoding="utf-8"?>
<!-- Generator: Adobe Illustrator 24.1.0, SVG Export Plug-In . SVG Version: 6.00 Build 0)  -->
<svg version="1.1" id="question" xmlns="http://www.w3.org/2000/svg" xmlns:xlink="http://www.w3.org/1999/xlink" x="0px" y="0px"
	 viewBox="0 0 2039 2039" style="enable-background:new 0 0 2039 2039;" xml:space="preserve">
<style type="text/css">
	.st0{fill:#F2F8FC;}
	.st1{fill:#FFFFFF;}
	.st2{fill:#DCEEFF;}
	.st3{fill:#2868AE;}
	.st4{display:none;fill:#2868AE;}
	.st5{fill:#34456B;}
</style>
<g id="b_x5F_circle">
	<circle class="st0" cx="1019.5" cy="1019.5" r="1019.5"/>
</g>
<g id="Layer_2_1_">
	<ellipse class="st1" cx="1018.4" cy="1023.7" rx="564.7" ry="558.7"/>
</g>
<g id="question_1_">
	<path class="st2" d="M1395.1,1404.3c-148.2,148.2-363,190.4-549,126.4c-73.9-25.4-143.3-67.5-202.2-126.4s-101-128.3-126.4-202.1
		c-63.9-186-21.8-400.7,126.4-549c148.2-148.2,363-190.3,549-126.4c73.9,25.4,143.3,67.5,202.1,126.4
		c58.9,58.9,101,128.3,126.4,202.2C1585.4,1041.3,1543.3,1256.1,1395.1,1404.3L1395.1,1404.3z M1599.5,448.7
		c-99.8-99.8-254.5-119.5-376-47.7l-11,6.5c-223.3-68.9-476.7-15.2-653.1,161.2s-230.1,429.7-161.1,653l-6.5,11
		c-71.8,121.6-52.1,276.3,47.7,376c99.8,99.8,254.5,119.5,376,47.7l10.9-6.5c223.3,68.9,476.7,15.2,653.1-161.2
		c41.1-41.1,75.6-86.4,103.4-134.6l64.3-155c32.2-119,30-245.5-6.4-363.5l6.5-11C1719,703.2,1699.4,548.5,1599.5,448.7L1599.5,448.7
		z"/>
	<g>
		<path class="st3" d="M1527.1,1028.8c0,65-12.4,130.1-37.1,191.2c-24.8,61.1-61.8,118.3-111.4,167.8
			c-49.5,49.5-106.8,86.6-167.9,111.4c-61.1,24.7-126.1,37.1-191.2,37.1c-56.2,0-112.3-9.2-165.9-27.7
			c-70.6-24.3-136.9-64.5-193.3-120.9c-56.3-56.3-96.6-122.7-120.9-193.3c-18.4-53.6-27.7-109.6-27.7-165.7
			c0-65.1,12.4-130.2,37.1-191.3c24.7-61.2,61.8-118.4,111.4-168C709.7,619.9,766.9,582.8,828,558c61.1-24.7,126.2-37.1,191.2-37.1
			c56.2,0,112.3,9.2,166,27.7c70.7,24.3,136.9,64.5,193.3,120.8c56.3,56.4,96.5,122.6,120.8,193.3
			C1517.9,916.5,1527.1,972.7,1527.1,1028.8L1527.1,1028.8z M1200.5,504.8c-58.6-20.2-119.8-30.2-181.1-30.2
			c-71,0-141.9,13.5-208.7,40.5c-66.7,27-129.3,67.6-183.2,121.6c-54.1,54-94.6,116.6-121.6,183.4c-27.1,66.8-40.5,137.8-40.5,208.8
			c0,61.1,10.1,122.3,30.1,180.8c26.5,77.1,70.5,149.6,132,211c61.4,61.4,133.9,105.5,211,132c58.5,20.1,119.8,30.2,181,30.2
			c71,0,141.9-13.5,208.7-40.6c66.7-27,129.3-67.6,183.3-121.6s94.6-116.5,121.6-183.3c27-66.7,40.5-137.6,40.5-208.6
			c0-61.2-10-122.5-30.2-181.1c-26.5-77.1-70.5-149.6-131.9-211S1277.6,531.3,1200.5,504.8L1200.5,504.8z"/>
		<path class="st4" d="M1019.5,1583.4c-61.9,0-122.8-10.2-181.2-30.2c-80-27.5-151.1-72-211.2-132.1S522.5,1289.9,495,1209.9
			c-20-58.4-30.2-119.2-30.2-180.9c0-72.2,13.6-142.5,40.6-209c27.8-68.9,68.7-130.7,121.7-183.6c52.9-52.9,114.6-93.9,183.4-121.7
			c66.5-26.9,136.8-40.6,208.9-40.6c62,0,123,10.2,181.2,30.2l0,0c80,27.4,151,71.9,211.2,132c60.2,60.2,104.6,131.2,132,211.2
			c20.1,58.2,30.2,119.2,30.2,181.2c0,72.1-13.6,142.3-40.6,208.8c-27.8,68.8-68.8,130.5-121.7,183.5
			c-52.9,52.9-114.6,93.8-183.5,121.7C1161.9,1569.8,1091.6,1583.4,1019.5,1583.4z M1019.4,475.1c-71.9,0-142.1,13.6-208.5,40.5
			c-68.7,27.8-130.3,68.6-183.1,121.5c-52.9,52.8-93.7,114.5-121.5,183.3c-26.9,66.3-40.5,136.5-40.5,208.6
			c0,61.6,10.1,122.3,30.1,180.6c27.5,79.9,71.8,150.8,131.9,210.8c60,60,131,104.4,210.8,131.8c58.3,20,119.1,30.2,180.8,30.2
			c72,0,142.1-13.6,208.5-40.5c68.7-27.8,130.3-68.7,183.1-121.5c52.8-52.8,93.7-114.4,121.5-183.1c26.9-66.4,40.5-136.5,40.5-208.4
			c0-61.9-10.2-122.8-30.2-180.9c-27.4-79.8-71.7-150.8-131.8-210.8c-60.1-60.1-131-104.4-210.8-131.8l0,0
			C1142.2,485.3,1081.3,475.1,1019.4,475.1z M1019.5,1536.9c-56.7,0-112.6-9.3-166.1-27.7c-73.3-25.2-138.4-65.9-193.5-121
			s-95.8-120.2-121-193.5c-18.4-53.6-27.7-109.4-27.7-165.8c0-66.2,12.5-130.6,37.2-191.5c25.5-63.1,63-119.7,111.5-168.2
			c48.4-48.4,104.9-85.9,168-111.5c61-24.6,125.4-37.1,191.4-37.1c56.9,0,112.8,9.3,166.1,27.7c73.2,25.2,138.3,65.9,193.5,120.9
			c55.1,55.1,95.7,120.2,120.9,193.5c18.4,53.3,27.7,109.2,27.7,166.1c0,66.1-12.5,130.5-37.1,191.4
			c-25.5,63.1-63.1,119.6-111.5,168s-104.9,85.9-168.1,111.5C1149.9,1524.4,1085.5,1536.9,1019.5,1536.9z M1019.4,521.6
			c-65.9,0-130.2,12.5-191,37c-63,25.6-119.4,63-167.7,111.4c-48.4,48.4-85.8,104.9-111.3,167.9c-24.6,60.8-37.1,125.1-37.1,191.2
			c0,56.3,9.3,112,27.6,165.5c25.2,73.2,65.8,138.1,120.7,193.1c55,55,119.9,95.6,193.1,120.7c53.4,18.3,109.2,27.6,165.7,27.6
			c65.8,0,130.1-12.5,191-37.1c63-25.5,119.4-63,167.7-111.3c48.3-48.3,85.8-104.7,111.3-167.7c24.6-60.8,37-125.1,37-191
			c0-56.8-9.3-112.6-27.6-165.8C1473.7,790,1433.1,725,1378.1,670s-120-95.6-193.1-120.7C1132,530.9,1076.2,521.6,1019.4,521.6z"/>
	</g>
	<path class="st3" d="M1713.4,667.5c0-43-8.3-85.8-24.7-125.9c-16.3-40-40.7-77.4-72.7-109.4s-69.4-56.4-109.4-72.7
		c-40.1-16.4-82.9-24.7-125.9-24.7c-58,0-116.4,15.2-169,46.2h-0.1l-2.6,1.6c-61.8-18-125.6-27.4-189.4-27.4
		c-86.3,0-172.6,16.4-253.8,49.2c-81.1,32.9-157.2,82.1-222.9,147.9C477.3,617.9,428,694,395.2,775.2S346,942.7,346,1029
		c0,63.8,9.3,127.6,27.3,189.3l-1.5,2.6h-0.1c-31,52.6-46.1,111.1-46.1,169c0,43.1,8.3,85.9,24.6,125.9
		c16.4,40.1,40.8,77.4,72.8,109.4c32,32.1,69.3,56.5,109.4,72.8c40,16.3,82.8,24.6,125.9,24.6c57.9,0,116.3-15.2,168.9-46.2l0,0
		l2.6-1.5c61.7,18,125.3,27.3,189,27.3c86.4,0,172.7-16.4,254-49.2c81.2-32.9,157.3-82.1,223-147.9c42.6-42.6,78.3-89.5,107.1-139.4
		c6.4-11.1,2.6-25.4-8.5-31.8s-25.4-2.5-31.8,8.6c-26.8,46.4-60,90-99.7,129.7c-61.2,61.2-132,107-207.6,137.6s-156,45.8-236.5,45.8
		c-62.6,0-125.3-9.4-185.6-28c-6.3-1.9-13-1.1-18.7,2.2l-11,6.5l0,0c-45.3,26.8-95.4,39.7-145.3,39.7c-37.1,0-73.9-7.1-108.4-21.2
		c-34.4-14.1-66.6-35-94.1-62.6c-27.7-27.5-48.6-59.7-62.6-94.1c-14.1-34.4-21.2-71.3-21.2-108.4c0-49.9,13-100,39.7-145.3l6.5-11
		c3.3-5.7,4.2-12.4,2.2-18.7c-18.7-60.4-28-123.2-28-185.9c0-80.5,15.2-160.8,45.8-236.3c30.6-75.6,76.4-146.3,137.6-207.5
		s131.9-107,207.5-137.6s155.9-45.8,236.3-45.8c62.7,0,125.5,9.4,186,28c6.2,1.9,13,1.2,18.7-2.2l11-6.5l-0.1,0.1
		c45.3-26.8,95.5-39.7,145.4-39.7c37,0,73.8,7.2,108.3,21.2c34.5,14.1,66.5,35,94.2,62.6c27.5,27.7,48.5,59.7,62.6,94.2
		c14,34.4,21.3,71.3,21.3,108.2c0,49.9-13,100.1-39.7,145.4l-0.1,0.1l-6.5,11c-3.3,5.6-4.1,12.3-2.2,18.6
		c18.7,60.5,28,123.5,28,186.3c0,55.3-7.3,110.6-21.8,164.4c-3.3,12.4,4,25.1,16.4,28.5c12.4,3.3,25.1-4,28.5-16.4
		c15.6-57.7,23.4-117,23.4-176.5c0-63.9-9.3-127.8-27.4-189.6l1.5-2.7l0,0C1698.3,784,1713.4,725.5,1713.4,667.5L1713.4,667.5z"/>
	<polygon class="st5" points="923.6,1349.5 923.6,1349.5 923.6,1349.5 	"/>
	<path class="st5" d="M1069.2,968.3L1069.2,968.3L1069.2,968.3L1069.2,968.3L1069.2,968.3z"/>
	<g>
		<path class="st3" d="M1190.8,906.4c-1.7,11.8-4.3,22-7.4,30.5c-6.9,18.6-15.3,33.3-24.8,44.4l0,0c-10.3,12-21.1,21.3-32.4,28.1
			c-13.8,8.5-26.7,16.5-38.8,24.2l-0.1,0.1c-13.2,8.4-24.8,17.5-34.8,27.5l0,0c-6.4,6.3-11.5,13.8-15.1,22c-3.3,7.4-5,15.5-6,23.9
			l-0.2-0.1c-1.3,6.4-3.3,12.1-5.9,17.2c-2.7,5.2-6,9.8-10.2,14.3c-3.9,4.2-7.6,6.8-11,8.3c-3.5,1.6-6.9,2.4-11,2.4
			c-3.9,0-8.3-0.6-13.3-1.8h-0.1c-3.6-1-7.1-2.5-10.9-5.3h-0.1c-1.3-0.8-2.5-2.1-3.8-3.6c-1.3-1.6-2.7-3.7-4-6.4l0,0
			c-0.9-1.8-1.8-4.3-2.4-7.7c-0.7-3.4-1.1-7.7-1.1-12.8c0-10.3,0.8-19.6,2.5-27.7c1.6-8.2,4-15.3,7-21.5c7-14.2,15.5-26.1,25.5-36.2
			c10.8-10.8,22.6-20.5,35.7-28.9l0,0c14.7-9.6,28.4-19.3,40.9-29.1c13.5-10.4,25.1-22.2,34.5-35.1c5.4-7.6,9.7-16.1,12.4-25
			c2.7-9,4-18.5,4-28.1c0-6.4-0.5-12.7-1.7-18.8c-1.8-9.1-5.2-17.9-10.3-25.6c-5.2-7.8-12.1-14.4-19.9-19.2l0,0
			c-9.5-5.8-20.1-9.9-31.4-12.6c-11.4-2.7-23.7-3.9-36.7-3.9c-14.1,0-27,1.6-38.9,5.3c-5.9,1.9-11.5,4.3-16.8,7.4
			c-5.3,3.1-10.1,6.9-14.4,11.3l0,0c-12.4,12.8-22.8,26.9-30.9,42.3l0,0c-6.6,12.5-13.5,23.9-20.8,34.3l0,0
			c-0.8,1.1-1.6,1.9-2.5,2.7c-1.4,1.1-3.2,2.2-6.2,3s-7,1.4-12.3,1.4c-4.4,0-8-0.7-11.4-2.2c-3.5-1.5-6.9-3.8-10.6-7.5l0,0
			c-3.1-3.1-5.3-6.5-6.9-11.1c-1.7-4.5-2.7-10.5-2.7-17.9c0-11.9,1.3-22.7,3.9-32.6c2.5-9.9,6.3-18.8,11.3-27.1
			c10.7-17.8,24.3-32.4,41.4-44.5l0,0c17.5-12.4,36.7-21.6,58-27.8h0.1c21.7-6.4,42.3-9.5,61.8-9.5c30.6,0,56.7,3.4,78.2,9.8
			c10.9,3.1,20.5,7.1,29.2,11.7c8.6,4.6,16.2,9.8,23,15.8h-0.1c6.9,6,12.8,12.6,17.9,19.7c7.5,10.6,13.3,22.3,17.2,35.9
			c3.9,13.4,5.9,28.6,5.9,45.6C1193.4,881.1,1192.5,894.6,1190.8,906.4L1190.8,906.4z M1039.8,1255.7c2.5,6.2,3.9,13.2,3.9,21.6
			c0,9.2-1.5,16.7-3.9,22.8c-2.4,6.1-5.8,11.1-10.8,15.6c-5.4,5-10.7,8.4-16.5,10.7c-5.9,2.3-12.1,3.5-19.5,3.5
			c-8.2,0-15-1.3-21-3.6c-6-2.3-11.2-5.6-16.4-10.5l0,0c-4.8-4.6-8-9.5-10.4-15.6c-2.4-6.2-3.8-13.7-3.8-23
			c0.1-8.9,1.4-16.1,3.8-22.4c2.4-6.2,5.9-11.5,10.9-16.6c5.1-5.1,10.4-8.6,16.3-10.9c5.9-2.4,12.6-3.7,20.7-3.7
			c7.1,0,13.2,1.2,18.8,3.6c5.7,2.4,11.1,6,16.6,11.5C1033.8,1244.1,1037.4,1249.5,1039.8,1255.7L1039.8,1255.7z M1208,757.5
			c-7.1-10-15.5-19.1-24.9-27.5l0,0c-9.6-8.5-20.3-15.7-31.9-21.9c-17.5-9.3-37.1-16.1-58.6-20.4c-21.6-4.5-45.1-6.5-70.5-6.5
			c-24.4,0-49.5,3.9-74.9,11.3l0,0c-26,7.6-50.1,19.1-71.7,34.5l0,0c-22.2,15.6-40.5,35.3-54.4,58.5c-7.4,12.2-12.8,25.5-16.4,39.5
			c-3.6,14-5.4,28.8-5.4,44.2c0,11.8,1.7,23.2,5.5,33.8c3.9,10.5,9.9,20.2,17.8,28l0,0c7.4,7.4,15.8,13.3,25.1,17.3
			c9.4,4,19.6,6,29.8,6c11.7,0,22.8-1.7,33-6.1c5.1-2.1,10-5,14.4-8.5s8.3-7.6,11.5-12.2l0,0c8.6-12.2,16.7-25.4,24-39.5l0,0
			c5.9-11.2,13.5-21.7,23.1-31.5l0,0c1.2-1.3,2.7-2.5,4.7-3.6c2.8-1.7,6.8-3.3,12.2-4.5c5.3-1.2,12-1.8,19.9-1.8
			c10.2,0,19,1,26.2,2.6c7.2,1.7,12.9,4,17.5,6.8c1.8,1.1,3,2.2,4.1,3.4c1.6,1.8,3,3.9,4,7.2s1.8,7.7,1.8,13.5
			c0,5.7-0.7,10.4-2.1,14.6c-1.2,4.2-3,7.7-5.5,11.2c-6.6,9-14.9,17.6-25.4,25.8l0,0c-11.4,8.8-24,17.8-37.8,26.8l0,0
			c-15.7,10.1-30.1,21.9-43.2,34.9c-13.8,13.9-25.4,30.3-34.3,48.7l0,0c-5,10.1-8.6,21.1-10.9,32.7c-2.4,11.7-3.4,24-3.4,36.9
			c0,7.6,0.6,14.7,1.9,21.6c1.3,6.9,3.4,13.5,6.5,19.7c2.7,5.3,5.8,10.3,9.4,14.9c3.7,4.6,8,8.6,12.7,12.1c3.5,2.5,7.7,3.5,11.6,5.4
			c-11.1,4.8-21.3,11.5-29.8,20.2l0,0c-9.4,9.3-16.7,20.4-21.4,32.6s-6.9,25.5-6.9,39.2c0,14,2.1,27.4,6.9,39.7
			c4.8,12.3,12.2,23.4,21.7,32.5c9.2,8.8,20,15.7,31.8,20.2s24.5,6.6,37.7,6.6c12.6,0,24.9-2.2,36.5-6.8c11.5-4.5,22-11.4,31.3-19.9
			c9.7-9.1,17.3-20.2,22.2-32.5c4.8-12.4,7.1-25.8,7.1-39.9c0-13.5-2.3-26.6-7.2-38.8c-4.8-12.1-12.3-23.1-21.6-32.5h-0.1
			c-9.2-9.2-19.7-16.5-31.3-21.4c-0.1-0.1-0.1-0.1-0.2-0.1c6.8-4,13.5-8.1,19.1-13.9l0,0c7.1-7.6,13.1-16,17.8-25.1
			c4.7-9.2,8-19,10.1-29.2c0.2-1,0.3-1.4,0.4-2.4c0.4-4.8,1.5-8.6,2.8-11.7c1.4-3.1,3.1-5.6,5.4-8c7.2-7.2,16.2-14.4,27-21.3l0,0
			c11.8-7.6,24.5-15.5,38-23.7c15.9-9.8,30.5-22.5,43.5-37.7h0.1c13.7-16.2,24.6-35.8,33-58.5c4.5-12.1,7.7-25.4,9.8-39.9
			c2.2-14.5,3.1-30.1,3.1-47c0-27.7-4.5-53.3-14-76.3C1221.1,778.3,1215.2,767.4,1208,757.5L1208,757.5z"/>
	</g>
	<polygon class="st5" points="919.4,1152.9 919.4,1152.9 919.4,1152.9 	"/>
	<polygon class="st5" points="941.5,1179.8 941.5,1179.8 941.5,1179.8 	"/>
</g>
</svg>
