<?xml version="1.0" encoding="utf-8"?>
<!-- Generator: Adobe Illustrator 24.0.3, SVG Export Plug-In . SVG Version: 6.00 Build 0)  -->
<svg version="1.1" id="kin_x5F_logo" xmlns="http://www.w3.org/2000/svg" xmlns:xlink="http://www.w3.org/1999/xlink" x="0px"
	 y="0px" viewBox="0 0 154.6 192" style="enable-background:new 0 0 154.6 192;" xml:space="preserve">
<style type="text/css">
	.st0{fill:#F17661;}
	.st1{fill:#E24443;}
	.st2{fill:#F8A73A;}
</style>
<g id="top_x5F_logo">
	<g id="top_1_">
		<path id="red" class="st0" d="M94.9,0H0v175.6c23.1-13.5,28.8-37.1,29.7-41.7c-0.4-15.1-3.6-29.8,2.4-46.4
			C44.3,43.6,63.6,26.6,94.9,0z"/>
		<path id="rose" class="st1" d="M0,175.6V192c5.6-3.8,10.8-8.5,15.2-14.1c13-16.3,14.9-30.4,14.5-44C28.8,138.5,23,162.1,0,175.6z"
			/>
		<path id="yellow" class="st2" d="M144.9,15.9c3.9-4.9,7.2-10.3,9.7-15.9H95C63.6,26.6,44.3,43.6,32.1,87.5
			c2.3-6.3,5.9-12.8,11.5-19.8C77.4,25.7,112,57.1,144.9,15.9z"/>
	</g>
</g>
</svg>
